solid OpenSCAD_Model
  facet normal 0 0 -1
    outer loop
      vertex -10.5 0 0
      vertex -10.4425 1.09755 0
      vertex -10.4425 -1.09755 0
    endloop
  endfacet
  facet normal 0 0 -1
    outer loop
      vertex -10.4425 -1.09755 0
      vertex -10.4425 1.09755 0
      vertex -10.2706 2.18307 0
    endloop
  endfacet
  facet normal 0 0 -1
    outer loop
      vertex -10.4425 -1.09755 0
      vertex -10.2706 2.18307 0
      vertex -9.98609 3.24468 0
    endloop
  endfacet
  facet normal 0 0 -1
    outer loop
      vertex -10.4425 -1.09755 0
      vertex -9.98609 3.24468 0
      vertex -9.59223 4.27074 0
    endloop
  endfacet
  facet normal 0 0 -1
    outer loop
      vertex -10.4425 -1.09755 0
      vertex -9.59223 4.27074 0
      vertex -9.09327 5.25 0
    endloop
  endfacet
  facet normal 0 0 -1
    outer loop
      vertex -10.4425 -1.09755 0
      vertex -9.09327 5.25 0
      vertex -8.49468 6.17174 0
    endloop
  endfacet
  facet normal 0 0 -1
    outer loop
      vertex -10.4425 -1.09755 0
      vertex -8.49468 6.17174 0
      vertex -7.80302 7.02587 0
    endloop
  endfacet
  facet normal 0 0 -1
    outer loop
      vertex -10.4425 -1.09755 0
      vertex -7.80302 7.02587 0
      vertex -7.02587 7.80302 0
    endloop
  endfacet
  facet normal 0 0 -1
    outer loop
      vertex -10.4425 -1.09755 0
      vertex -7.02587 7.80302 0
      vertex -6.17174 8.49468 0
    endloop
  endfacet
  facet normal 0 0 -1
    outer loop
      vertex -10.4425 -1.09755 0
      vertex -6.17174 8.49468 0
      vertex -5.25 9.09327 0
    endloop
  endfacet
  facet normal 0 0 -1
    outer loop
      vertex -10.4425 -1.09755 0
      vertex -5.25 9.09327 0
      vertex -4.27074 9.59223 0
    endloop
  endfacet
  facet normal 0 0 -1
    outer loop
      vertex -10.4425 -1.09755 0
      vertex -4.27074 9.59223 0
      vertex -3.24468 9.98609 0
    endloop
  endfacet
  facet normal 0 0 -1
    outer loop
      vertex -10.4425 -1.09755 0
      vertex -3.24468 9.98609 0
      vertex -2.18307 10.2706 0
    endloop
  endfacet
  facet normal 0 0 -1
    outer loop
      vertex -10.4425 -1.09755 0
      vertex -2.18307 10.2706 0
      vertex -1.09755 10.4425 0
    endloop
  endfacet
  facet normal 0 0 -1
    outer loop
      vertex -10.4425 -1.09755 0
      vertex -1.09755 10.4425 0
      vertex 0 10.5 0
    endloop
  endfacet
  facet normal 0 0 -1
    outer loop
      vertex -10.4425 -1.09755 0
      vertex 0 10.5 0
      vertex 1.09755 10.4425 0
    endloop
  endfacet
  facet normal 0 0 -1
    outer loop
      vertex -10.4425 -1.09755 0
      vertex 1.09755 10.4425 0
      vertex 2.18307 10.2706 0
    endloop
  endfacet
  facet normal 0 0 -1
    outer loop
      vertex -10.4425 -1.09755 0
      vertex 2.18307 10.2706 0
      vertex 3.24468 9.98609 0
    endloop
  endfacet
  facet normal 0 0 -1
    outer loop
      vertex -10.4425 -1.09755 0
      vertex 3.24468 9.98609 0
      vertex 4.27074 9.59223 0
    endloop
  endfacet
  facet normal 0 0 -1
    outer loop
      vertex -10.4425 -1.09755 0
      vertex 4.27074 9.59223 0
      vertex 5.25 9.09327 0
    endloop
  endfacet
  facet normal 0 0 -1
    outer loop
      vertex -10.4425 -1.09755 0
      vertex 5.25 9.09327 0
      vertex 6.17174 8.49468 0
    endloop
  endfacet
  facet normal 0 0 -1
    outer loop
      vertex -10.4425 -1.09755 0
      vertex 6.17174 8.49468 0
      vertex 7.02587 7.80302 0
    endloop
  endfacet
  facet normal 0 0 -1
    outer loop
      vertex -10.4425 -1.09755 0
      vertex 7.02587 7.80302 0
      vertex 7.80302 7.02587 0
    endloop
  endfacet
  facet normal 0 0 -1
    outer loop
      vertex -10.4425 -1.09755 0
      vertex 7.80302 7.02587 0
      vertex 8.49468 6.17174 0
    endloop
  endfacet
  facet normal 0 0 -1
    outer loop
      vertex -10.4425 -1.09755 0
      vertex 8.49468 6.17174 0
      vertex 9.09327 5.25 0
    endloop
  endfacet
  facet normal 0 0 -1
    outer loop
      vertex 0.648936 1.99722 0
      vertex 9.09327 5.25 0
      vertex 9.59223 4.27074 0
    endloop
  endfacet
  facet normal 0 0 -1
    outer loop
      vertex 1.40517 1.5606 0
      vertex 9.59223 4.27074 0
      vertex 9.98609 3.24468 0
    endloop
  endfacet
  facet normal 0 0 -1
    outer loop
      vertex 1.81865 1.05 0
      vertex 9.98609 3.24468 0
      vertex 10.2706 2.18307 0
    endloop
  endfacet
  facet normal 0 0 -1
    outer loop
      vertex 2.05411 0.436615 0
      vertex 10.2706 2.18307 0
      vertex 10.4425 1.09755 0
    endloop
  endfacet
  facet normal 0 0 -1
    outer loop
      vertex 2.1 0 0
      vertex 10.4425 1.09755 0
      vertex 10.5 0 0
    endloop
  endfacet
  facet normal 0 0 -1
    outer loop
      vertex 1.91844 -0.854147 0
      vertex 10.5 0 0
      vertex 10.4425 -1.09755 0
    endloop
  endfacet
  facet normal 0 0 -1
    outer loop
      vertex 1.5606 -1.40517 0
      vertex 10.4425 -1.09755 0
      vertex 10.2706 -2.18307 0
    endloop
  endfacet
  facet normal 0 0 -1
    outer loop
      vertex 0.854147 -1.91844 0
      vertex 10.2706 -2.18307 0
      vertex 9.98609 -3.24468 0
    endloop
  endfacet
  facet normal 0 0 -1
    outer loop
      vertex -10.4425 -1.09755 0
      vertex 9.98609 -3.24468 0
      vertex 9.59223 -4.27074 0
    endloop
  endfacet
  facet normal 0 0 -1
    outer loop
      vertex -10.4425 -1.09755 0
      vertex 9.59223 -4.27074 0
      vertex 9.09327 -5.25 0
    endloop
  endfacet
  facet normal 0 0 -1
    outer loop
      vertex -10.4425 -1.09755 0
      vertex 9.09327 -5.25 0
      vertex 8.49468 -6.17174 0
    endloop
  endfacet
  facet normal 0 0 -1
    outer loop
      vertex -10.4425 -1.09755 0
      vertex 8.49468 -6.17174 0
      vertex 7.80302 -7.02587 0
    endloop
  endfacet
  facet normal 0 0 -1
    outer loop
      vertex -10.4425 -1.09755 0
      vertex 7.80302 -7.02587 0
      vertex 7.02587 -7.80302 0
    endloop
  endfacet
  facet normal 0 0 -1
    outer loop
      vertex -10.4425 -1.09755 0
      vertex 7.02587 -7.80302 0
      vertex 6.17174 -8.49468 0
    endloop
  endfacet
  facet normal 0 0 -1
    outer loop
      vertex -10.4425 -1.09755 0
      vertex 6.17174 -8.49468 0
      vertex 5.25 -9.09327 0
    endloop
  endfacet
  facet normal 0 0 -1
    outer loop
      vertex -10.4425 -1.09755 0
      vertex 5.25 -9.09327 0
      vertex 4.27074 -9.59223 0
    endloop
  endfacet
  facet normal 0 0 -1
    outer loop
      vertex -10.4425 -1.09755 0
      vertex 4.27074 -9.59223 0
      vertex 3.24468 -9.98609 0
    endloop
  endfacet
  facet normal 0 0 -1
    outer loop
      vertex -10.4425 -1.09755 0
      vertex 3.24468 -9.98609 0
      vertex 2.18307 -10.2706 0
    endloop
  endfacet
  facet normal 0 0 -1
    outer loop
      vertex -10.4425 -1.09755 0
      vertex 2.18307 -10.2706 0
      vertex 1.09755 -10.4425 0
    endloop
  endfacet
  facet normal 0 0 -1
    outer loop
      vertex -10.4425 -1.09755 0
      vertex 1.09755 -10.4425 0
      vertex 0 -10.5 0
    endloop
  endfacet
  facet normal 0 0 -1
    outer loop
      vertex -10.4425 -1.09755 0
      vertex 0 -10.5 0
      vertex -1.09755 -10.4425 0
    endloop
  endfacet
  facet normal 0 0 -1
    outer loop
      vertex -10.4425 -1.09755 0
      vertex -1.09755 -10.4425 0
      vertex -2.18307 -10.2706 0
    endloop
  endfacet
  facet normal 0 0 -1
    outer loop
      vertex -10.4425 -1.09755 0
      vertex -2.18307 -10.2706 0
      vertex -3.24468 -9.98609 0
    endloop
  endfacet
  facet normal 0 0 -1
    outer loop
      vertex -10.4425 -1.09755 0
      vertex -3.24468 -9.98609 0
      vertex -4.27074 -9.59223 0
    endloop
  endfacet
  facet normal 0 0 -1
    outer loop
      vertex -10.4425 -1.09755 0
      vertex -4.27074 -9.59223 0
      vertex -5.25 -9.09327 0
    endloop
  endfacet
  facet normal 0 0 -1
    outer loop
      vertex -10.4425 -1.09755 0
      vertex -5.25 -9.09327 0
      vertex -6.17174 -8.49468 0
    endloop
  endfacet
  facet normal 0 0 -1
    outer loop
      vertex -10.4425 -1.09755 0
      vertex -6.17174 -8.49468 0
      vertex -7.02587 -7.80302 0
    endloop
  endfacet
  facet normal 0 0 -1
    outer loop
      vertex -10.4425 -1.09755 0
      vertex -7.02587 -7.80302 0
      vertex -7.80302 -7.02587 0
    endloop
  endfacet
  facet normal 0 0 -1
    outer loop
      vertex -10.4425 -1.09755 0
      vertex -7.80302 -7.02587 0
      vertex -8.49468 -6.17174 0
    endloop
  endfacet
  facet normal 0 0 -1
    outer loop
      vertex -10.4425 -1.09755 0
      vertex -8.49468 -6.17174 0
      vertex -9.09327 -5.25 0
    endloop
  endfacet
  facet normal 0 0 -1
    outer loop
      vertex -10.4425 -1.09755 0
      vertex -9.09327 -5.25 0
      vertex -9.59223 -4.27074 0
    endloop
  endfacet
  facet normal 0 0 -1
    outer loop
      vertex -10.4425 -1.09755 0
      vertex -9.59223 -4.27074 0
      vertex -9.98609 -3.24468 0
    endloop
  endfacet
  facet normal 0 0 -1
    outer loop
      vertex -10.4425 -1.09755 0
      vertex -9.98609 -3.24468 0
      vertex -10.2706 -2.18307 0
    endloop
  endfacet
  facet normal 0 0 -1
    outer loop
      vertex 1.81865 1.05 0
      vertex 10.2706 2.18307 0
      vertex 1.91844 0.854147 0
    endloop
  endfacet
  facet normal 0 0 -1
    outer loop
      vertex -1.91844 -0.854147 0
      vertex -10.4425 -1.09755 0
      vertex -1.99722 -0.648936 0
    endloop
  endfacet
  facet normal 0 0 -1
    outer loop
      vertex -10.4425 -1.09755 0
      vertex -2.0885 -0.21951 0
      vertex -2.05411 -0.436615 0
    endloop
  endfacet
  facet normal 0 0 -1
    outer loop
      vertex -10.4425 -1.09755 0
      vertex -2.05411 -0.436615 0
      vertex -1.99722 -0.648936 0
    endloop
  endfacet
  facet normal 0 0 -1
    outer loop
      vertex -1.69894 -1.23435 0
      vertex -10.4425 -1.09755 0
      vertex -1.81865 -1.05 0
    endloop
  endfacet
  facet normal 0 0 -1
    outer loop
      vertex -10.4425 -1.09755 0
      vertex -1.91844 -0.854147 0
      vertex -1.81865 -1.05 0
    endloop
  endfacet
  facet normal 0 0 -1
    outer loop
      vertex -1.23435 -1.69894 0
      vertex -10.4425 -1.09755 0
      vertex -1.40517 -1.5606 0
    endloop
  endfacet
  facet normal 0 0 -1
    outer loop
      vertex -10.4425 -1.09755 0
      vertex -1.69894 -1.23435 0
      vertex -1.5606 -1.40517 0
    endloop
  endfacet
  facet normal 0 0 -1
    outer loop
      vertex -10.4425 -1.09755 0
      vertex -1.5606 -1.40517 0
      vertex -1.40517 -1.5606 0
    endloop
  endfacet
  facet normal 0 0 -1
    outer loop
      vertex 0 -2.1 0
      vertex 9.98609 -3.24468 0
      vertex -0.21951 -2.0885 0
    endloop
  endfacet
  facet normal 0 0 -1
    outer loop
      vertex -10.4425 -1.09755 0
      vertex -1.23435 -1.69894 0
      vertex -1.05 -1.81865 0
    endloop
  endfacet
  facet normal 0 0 -1
    outer loop
      vertex -10.4425 -1.09755 0
      vertex -1.05 -1.81865 0
      vertex -0.854147 -1.91844 0
    endloop
  endfacet
  facet normal 0 0 -1
    outer loop
      vertex -10.4425 -1.09755 0
      vertex -0.854147 -1.91844 0
      vertex -0.648936 -1.99722 0
    endloop
  endfacet
  facet normal 0 0 -1
    outer loop
      vertex -10.4425 -1.09755 0
      vertex -0.648936 -1.99722 0
      vertex -0.436615 -2.05411 0
    endloop
  endfacet
  facet normal 0 0 -1
    outer loop
      vertex -10.4425 -1.09755 0
      vertex -0.436615 -2.05411 0
      vertex -0.21951 -2.0885 0
    endloop
  endfacet
  facet normal 0 0 -1
    outer loop
      vertex -10.4425 -1.09755 0
      vertex -0.21951 -2.0885 0
      vertex 9.98609 -3.24468 0
    endloop
  endfacet
  facet normal 0 0 -1
    outer loop
      vertex 0.21951 -2.0885 0
      vertex 9.98609 -3.24468 0
      vertex 0 -2.1 0
    endloop
  endfacet
  facet normal 0 0 -1
    outer loop
      vertex 0.436615 -2.05411 0
      vertex 9.98609 -3.24468 0
      vertex 0.21951 -2.0885 0
    endloop
  endfacet
  facet normal 0 0 -1
    outer loop
      vertex 0.648936 -1.99722 0
      vertex 9.98609 -3.24468 0
      vertex 0.436615 -2.05411 0
    endloop
  endfacet
  facet normal 0 0 -1
    outer loop
      vertex 0.854147 -1.91844 0
      vertex 9.98609 -3.24468 0
      vertex 0.648936 -1.99722 0
    endloop
  endfacet
  facet normal 0 0 -1
    outer loop
      vertex 1.05 -1.81865 0
      vertex 10.2706 -2.18307 0
      vertex 0.854147 -1.91844 0
    endloop
  endfacet
  facet normal 0 0 -1
    outer loop
      vertex 1.23435 -1.69894 0
      vertex 10.2706 -2.18307 0
      vertex 1.05 -1.81865 0
    endloop
  endfacet
  facet normal 0 0 -1
    outer loop
      vertex 1.40517 -1.5606 0
      vertex 10.2706 -2.18307 0
      vertex 1.23435 -1.69894 0
    endloop
  endfacet
  facet normal 0 0 -1
    outer loop
      vertex 1.5606 -1.40517 0
      vertex 10.2706 -2.18307 0
      vertex 1.40517 -1.5606 0
    endloop
  endfacet
  facet normal 0 0 -1
    outer loop
      vertex 1.69894 -1.23435 0
      vertex 10.4425 -1.09755 0
      vertex 1.5606 -1.40517 0
    endloop
  endfacet
  facet normal 0 0 -1
    outer loop
      vertex 1.81865 -1.05 0
      vertex 10.4425 -1.09755 0
      vertex 1.69894 -1.23435 0
    endloop
  endfacet
  facet normal 0 0 -1
    outer loop
      vertex 1.91844 -0.854147 0
      vertex 10.4425 -1.09755 0
      vertex 1.81865 -1.05 0
    endloop
  endfacet
  facet normal 0 0 -1
    outer loop
      vertex 1.99722 -0.648936 0
      vertex 10.5 0 0
      vertex 1.91844 -0.854147 0
    endloop
  endfacet
  facet normal 0 0 -1
    outer loop
      vertex 2.05411 -0.436615 0
      vertex 10.5 0 0
      vertex 1.99722 -0.648936 0
    endloop
  endfacet
  facet normal 0 0 -1
    outer loop
      vertex 2.0885 -0.21951 0
      vertex 10.5 0 0
      vertex 2.05411 -0.436615 0
    endloop
  endfacet
  facet normal 0 0 -1
    outer loop
      vertex 2.1 0 0
      vertex 10.5 0 0
      vertex 2.0885 -0.21951 0
    endloop
  endfacet
  facet normal 0 0 -1
    outer loop
      vertex 2.0885 0.21951 0
      vertex 10.4425 1.09755 0
      vertex 2.1 0 0
    endloop
  endfacet
  facet normal 0 0 -1
    outer loop
      vertex 1.99722 0.648936 0
      vertex 10.2706 2.18307 0
      vertex 2.05411 0.436615 0
    endloop
  endfacet
  facet normal 0 0 -1
    outer loop
      vertex 1.91844 0.854147 0
      vertex 10.2706 2.18307 0
      vertex 1.99722 0.648936 0
    endloop
  endfacet
  facet normal 0 0 -1
    outer loop
      vertex 1.69894 1.23435 0
      vertex 9.98609 3.24468 0
      vertex 1.81865 1.05 0
    endloop
  endfacet
  facet normal 0 0 -1
    outer loop
      vertex 1.40517 1.5606 0
      vertex 9.98609 3.24468 0
      vertex 1.5606 1.40517 0
    endloop
  endfacet
  facet normal 0 0 -1
    outer loop
      vertex 1.5606 1.40517 0
      vertex 9.98609 3.24468 0
      vertex 1.69894 1.23435 0
    endloop
  endfacet
  facet normal 0 0 -1
    outer loop
      vertex 1.23435 1.69894 0
      vertex 9.59223 4.27074 0
      vertex 1.40517 1.5606 0
    endloop
  endfacet
  facet normal 0 0 -1
    outer loop
      vertex 0.648936 1.99722 0
      vertex 9.59223 4.27074 0
      vertex 0.854147 1.91844 0
    endloop
  endfacet
  facet normal 0 0 -1
    outer loop
      vertex 1.05 1.81865 0
      vertex 9.59223 4.27074 0
      vertex 1.23435 1.69894 0
    endloop
  endfacet
  facet normal 0 0 -1
    outer loop
      vertex 0.854147 1.91844 0
      vertex 9.59223 4.27074 0
      vertex 1.05 1.81865 0
    endloop
  endfacet
  facet normal 0 0 -1
    outer loop
      vertex 0.436615 2.05411 0
      vertex 9.09327 5.25 0
      vertex 0.648936 1.99722 0
    endloop
  endfacet
  facet normal 0 0 -1
    outer loop
      vertex -0.854147 1.91844 0
      vertex -10.4425 -1.09755 0
      vertex -0.648936 1.99722 0
    endloop
  endfacet
  facet normal 0 0 -1
    outer loop
      vertex 0.21951 2.0885 0
      vertex 9.09327 5.25 0
      vertex 0.436615 2.05411 0
    endloop
  endfacet
  facet normal 0 0 -1
    outer loop
      vertex 0 2.1 0
      vertex 9.09327 5.25 0
      vertex 0.21951 2.0885 0
    endloop
  endfacet
  facet normal 0 0 -1
    outer loop
      vertex -0.21951 2.0885 0
      vertex 9.09327 5.25 0
      vertex 0 2.1 0
    endloop
  endfacet
  facet normal 0 0 -1
    outer loop
      vertex -0.436615 2.05411 0
      vertex 9.09327 5.25 0
      vertex -0.21951 2.0885 0
    endloop
  endfacet
  facet normal 0 0 -1
    outer loop
      vertex -0.648936 1.99722 0
      vertex 9.09327 5.25 0
      vertex -0.436615 2.05411 0
    endloop
  endfacet
  facet normal 0 0 -1
    outer loop
      vertex -10.4425 -1.09755 0
      vertex 9.09327 5.25 0
      vertex -0.648936 1.99722 0
    endloop
  endfacet
  facet normal 0 0 -1
    outer loop
      vertex -1.05 1.81865 0
      vertex -10.4425 -1.09755 0
      vertex -0.854147 1.91844 0
    endloop
  endfacet
  facet normal 0 0 -1
    outer loop
      vertex -1.23435 1.69894 0
      vertex -10.4425 -1.09755 0
      vertex -1.05 1.81865 0
    endloop
  endfacet
  facet normal 0 0 -1
    outer loop
      vertex -1.40517 1.5606 0
      vertex -10.4425 -1.09755 0
      vertex -1.23435 1.69894 0
    endloop
  endfacet
  facet normal 0 0 -1
    outer loop
      vertex -1.5606 1.40517 0
      vertex -10.4425 -1.09755 0
      vertex -1.40517 1.5606 0
    endloop
  endfacet
  facet normal 0 0 -1
    outer loop
      vertex -1.69894 1.23435 0
      vertex -10.4425 -1.09755 0
      vertex -1.5606 1.40517 0
    endloop
  endfacet
  facet normal 0 0 -1
    outer loop
      vertex -1.81865 1.05 0
      vertex -10.4425 -1.09755 0
      vertex -1.69894 1.23435 0
    endloop
  endfacet
  facet normal 0 0 -1
    outer loop
      vertex -1.91844 0.854147 0
      vertex -10.4425 -1.09755 0
      vertex -1.81865 1.05 0
    endloop
  endfacet
  facet normal 0 0 -1
    outer loop
      vertex -1.99722 0.648936 0
      vertex -10.4425 -1.09755 0
      vertex -1.91844 0.854147 0
    endloop
  endfacet
  facet normal 0 0 -1
    outer loop
      vertex -2.05411 0.436615 0
      vertex -10.4425 -1.09755 0
      vertex -1.99722 0.648936 0
    endloop
  endfacet
  facet normal 0 0 -1
    outer loop
      vertex -2.0885 0.21951 0
      vertex -10.4425 -1.09755 0
      vertex -2.05411 0.436615 0
    endloop
  endfacet
  facet normal 0 0 -1
    outer loop
      vertex -10.4425 -1.09755 0
      vertex -2.0885 0.21951 0
      vertex -2.1 0 0
    endloop
  endfacet
  facet normal 0 0 -1
    outer loop
      vertex -2.0885 -0.21951 0
      vertex -10.4425 -1.09755 0
      vertex -2.1 0 0
    endloop
  endfacet
  facet normal 0 0 -1
    outer loop
      vertex 2.05411 0.436615 0
      vertex 10.4425 1.09755 0
      vertex 2.0885 0.21951 0
    endloop
  endfacet
  facet normal -0.99863 0.0523359 0
    outer loop
      vertex -10.5 0 0
      vertex -10.5 0 20
      vertex -10.4425 1.09755 0
    endloop
  endfacet
  facet normal -0.99863 0.0523359 0
    outer loop
      vertex -10.4425 1.09755 0
      vertex -10.5 0 20
      vertex -10.4425 1.09755 20
    endloop
  endfacet
  facet normal -0.99863 -0.0523359 0
    outer loop
      vertex -10.5 0 0
      vertex -10.4425 -1.09755 0
      vertex -10.5 0 20
    endloop
  endfacet
  facet normal -0.99863 -0.0523359 0
    outer loop
      vertex -10.5 0 20
      vertex -10.4425 -1.09755 0
      vertex -10.4425 -1.09755 20
    endloop
  endfacet
  facet normal -0.987688 -0.156434 0
    outer loop
      vertex -10.4425 -1.09755 0
      vertex -10.2706 -2.18307 0
      vertex -10.4425 -1.09755 20
    endloop
  endfacet
  facet normal -0.987688 -0.156434 0
    outer loop
      vertex -10.4425 -1.09755 20
      vertex -10.2706 -2.18307 0
      vertex -10.2706 -2.18307 20
    endloop
  endfacet
  facet normal -0.965926 -0.25882 0
    outer loop
      vertex -10.2706 -2.18307 0
      vertex -9.98609 -3.24468 0
      vertex -10.2706 -2.18307 20
    endloop
  endfacet
  facet normal -0.965926 -0.25882 0
    outer loop
      vertex -10.2706 -2.18307 20
      vertex -9.98609 -3.24468 0
      vertex -9.98609 -3.24468 20
    endloop
  endfacet
  facet normal -0.933581 -0.358368 0
    outer loop
      vertex -9.98609 -3.24468 0
      vertex -9.59223 -4.27074 0
      vertex -9.98609 -3.24468 20
    endloop
  endfacet
  facet normal -0.933581 -0.358368 0
    outer loop
      vertex -9.98609 -3.24468 20
      vertex -9.59223 -4.27074 0
      vertex -9.59223 -4.27074 20
    endloop
  endfacet
  facet normal -0.891007 -0.45399 0
    outer loop
      vertex -9.59223 -4.27074 0
      vertex -9.09327 -5.25 0
      vertex -9.59223 -4.27074 20
    endloop
  endfacet
  facet normal -0.891007 -0.45399 0
    outer loop
      vertex -9.59223 -4.27074 20
      vertex -9.09327 -5.25 0
      vertex -9.09327 -5.25 20
    endloop
  endfacet
  facet normal -0.83867 -0.54464 0
    outer loop
      vertex -9.09327 -5.25 0
      vertex -8.49468 -6.17174 0
      vertex -9.09327 -5.25 20
    endloop
  endfacet
  facet normal -0.83867 -0.54464 0
    outer loop
      vertex -9.09327 -5.25 20
      vertex -8.49468 -6.17174 0
      vertex -8.49468 -6.17174 20
    endloop
  endfacet
  facet normal -0.777146 -0.62932 0
    outer loop
      vertex -8.49468 -6.17174 0
      vertex -7.80302 -7.02587 0
      vertex -8.49468 -6.17174 20
    endloop
  endfacet
  facet normal -0.777146 -0.62932 0
    outer loop
      vertex -8.49468 -6.17174 20
      vertex -7.80302 -7.02587 0
      vertex -7.80302 -7.02587 20
    endloop
  endfacet
  facet normal -0.707107 -0.707107 0
    outer loop
      vertex -7.80302 -7.02587 20
      vertex -7.80302 -7.02587 0
      vertex -7.02587 -7.80302 0
    endloop
  endfacet
  facet normal -0.707107 -0.707107 0
    outer loop
      vertex -7.02587 -7.80302 20
      vertex -7.80302 -7.02587 20
      vertex -7.02587 -7.80302 0
    endloop
  endfacet
  facet normal -0.62932 -0.777146 0
    outer loop
      vertex -7.02587 -7.80302 20
      vertex -7.02587 -7.80302 0
      vertex -6.17174 -8.49468 0
    endloop
  endfacet
  facet normal -0.62932 -0.777146 0
    outer loop
      vertex -6.17174 -8.49468 20
      vertex -7.02587 -7.80302 20
      vertex -6.17174 -8.49468 0
    endloop
  endfacet
  facet normal -0.54464 -0.83867 0
    outer loop
      vertex -6.17174 -8.49468 20
      vertex -6.17174 -8.49468 0
      vertex -5.25 -9.09327 0
    endloop
  endfacet
  facet normal -0.54464 -0.83867 0
    outer loop
      vertex -5.25 -9.09327 20
      vertex -6.17174 -8.49468 20
      vertex -5.25 -9.09327 0
    endloop
  endfacet
  facet normal -0.45399 -0.891007 0
    outer loop
      vertex -5.25 -9.09327 20
      vertex -5.25 -9.09327 0
      vertex -4.27074 -9.59223 0
    endloop
  endfacet
  facet normal -0.45399 -0.891007 0
    outer loop
      vertex -4.27074 -9.59223 20
      vertex -5.25 -9.09327 20
      vertex -4.27074 -9.59223 0
    endloop
  endfacet
  facet normal -0.358368 -0.933581 0
    outer loop
      vertex -4.27074 -9.59223 20
      vertex -4.27074 -9.59223 0
      vertex -3.24468 -9.98609 0
    endloop
  endfacet
  facet normal -0.358368 -0.933581 0
    outer loop
      vertex -3.24468 -9.98609 20
      vertex -4.27074 -9.59223 20
      vertex -3.24468 -9.98609 0
    endloop
  endfacet
  facet normal -0.25882 -0.965926 0
    outer loop
      vertex -3.24468 -9.98609 20
      vertex -3.24468 -9.98609 0
      vertex -2.18307 -10.2706 0
    endloop
  endfacet
  facet normal -0.25882 -0.965926 0
    outer loop
      vertex -2.18307 -10.2706 20
      vertex -3.24468 -9.98609 20
      vertex -2.18307 -10.2706 0
    endloop
  endfacet
  facet normal -0.156434 -0.987688 0
    outer loop
      vertex -2.18307 -10.2706 20
      vertex -2.18307 -10.2706 0
      vertex -1.09755 -10.4425 0
    endloop
  endfacet
  facet normal -0.156434 -0.987688 0
    outer loop
      vertex -1.09755 -10.4425 20
      vertex -2.18307 -10.2706 20
      vertex -1.09755 -10.4425 0
    endloop
  endfacet
  facet normal -0.0523359 -0.99863 0
    outer loop
      vertex -1.09755 -10.4425 20
      vertex -1.09755 -10.4425 0
      vertex 0 -10.5 0
    endloop
  endfacet
  facet normal -0.0523359 -0.99863 0
    outer loop
      vertex 0 -10.5 20
      vertex -1.09755 -10.4425 20
      vertex 0 -10.5 0
    endloop
  endfacet
  facet normal 0.0523359 -0.99863 0
    outer loop
      vertex 0 -10.5 20
      vertex 0 -10.5 0
      vertex 1.09755 -10.4425 0
    endloop
  endfacet
  facet normal 0.0523359 -0.99863 0
    outer loop
      vertex 1.09755 -10.4425 20
      vertex 0 -10.5 20
      vertex 1.09755 -10.4425 0
    endloop
  endfacet
  facet normal 0.156434 -0.987688 0
    outer loop
      vertex 1.09755 -10.4425 20
      vertex 1.09755 -10.4425 0
      vertex 2.18307 -10.2706 0
    endloop
  endfacet
  facet normal 0.156434 -0.987688 0
    outer loop
      vertex 2.18307 -10.2706 20
      vertex 1.09755 -10.4425 20
      vertex 2.18307 -10.2706 0
    endloop
  endfacet
  facet normal 0.25882 -0.965926 0
    outer loop
      vertex 2.18307 -10.2706 20
      vertex 2.18307 -10.2706 0
      vertex 3.24468 -9.98609 0
    endloop
  endfacet
  facet normal 0.25882 -0.965926 0
    outer loop
      vertex 3.24468 -9.98609 20
      vertex 2.18307 -10.2706 20
      vertex 3.24468 -9.98609 0
    endloop
  endfacet
  facet normal 0.358368 -0.933581 0
    outer loop
      vertex 3.24468 -9.98609 20
      vertex 3.24468 -9.98609 0
      vertex 4.27074 -9.59223 0
    endloop
  endfacet
  facet normal 0.358368 -0.933581 0
    outer loop
      vertex 4.27074 -9.59223 20
      vertex 3.24468 -9.98609 20
      vertex 4.27074 -9.59223 0
    endloop
  endfacet
  facet normal 0.45399 -0.891007 0
    outer loop
      vertex 4.27074 -9.59223 20
      vertex 4.27074 -9.59223 0
      vertex 5.25 -9.09327 0
    endloop
  endfacet
  facet normal 0.45399 -0.891007 0
    outer loop
      vertex 5.25 -9.09327 20
      vertex 4.27074 -9.59223 20
      vertex 5.25 -9.09327 0
    endloop
  endfacet
  facet normal 0.54464 -0.83867 0
    outer loop
      vertex 5.25 -9.09327 20
      vertex 5.25 -9.09327 0
      vertex 6.17174 -8.49468 0
    endloop
  endfacet
  facet normal 0.54464 -0.83867 0
    outer loop
      vertex 6.17174 -8.49468 20
      vertex 5.25 -9.09327 20
      vertex 6.17174 -8.49468 0
    endloop
  endfacet
  facet normal 0.62932 -0.777146 0
    outer loop
      vertex 6.17174 -8.49468 20
      vertex 6.17174 -8.49468 0
      vertex 7.02587 -7.80302 0
    endloop
  endfacet
  facet normal 0.62932 -0.777146 0
    outer loop
      vertex 7.02587 -7.80302 20
      vertex 6.17174 -8.49468 20
      vertex 7.02587 -7.80302 0
    endloop
  endfacet
  facet normal 0.707107 -0.707107 0
    outer loop
      vertex 7.02587 -7.80302 20
      vertex 7.02587 -7.80302 0
      vertex 7.80302 -7.02587 0
    endloop
  endfacet
  facet normal 0.707107 -0.707107 0
    outer loop
      vertex 7.80302 -7.02587 20
      vertex 7.02587 -7.80302 20
      vertex 7.80302 -7.02587 0
    endloop
  endfacet
  facet normal 0.777146 -0.62932 0
    outer loop
      vertex 7.80302 -7.02587 20
      vertex 7.80302 -7.02587 0
      vertex 8.49468 -6.17174 0
    endloop
  endfacet
  facet normal 0.777146 -0.62932 0
    outer loop
      vertex 8.49468 -6.17174 20
      vertex 7.80302 -7.02587 20
      vertex 8.49468 -6.17174 0
    endloop
  endfacet
  facet normal 0.83867 -0.54464 0
    outer loop
      vertex 8.49468 -6.17174 20
      vertex 8.49468 -6.17174 0
      vertex 9.09327 -5.25 0
    endloop
  endfacet
  facet normal 0.83867 -0.54464 0
    outer loop
      vertex 9.09327 -5.25 20
      vertex 8.49468 -6.17174 20
      vertex 9.09327 -5.25 0
    endloop
  endfacet
  facet normal 0.891007 -0.45399 0
    outer loop
      vertex 9.09327 -5.25 20
      vertex 9.09327 -5.25 0
      vertex 9.59223 -4.27074 0
    endloop
  endfacet
  facet normal 0.891007 -0.45399 0
    outer loop
      vertex 9.59223 -4.27074 20
      vertex 9.09327 -5.25 20
      vertex 9.59223 -4.27074 0
    endloop
  endfacet
  facet normal 0.933581 -0.358368 0
    outer loop
      vertex 9.59223 -4.27074 20
      vertex 9.59223 -4.27074 0
      vertex 9.98609 -3.24468 0
    endloop
  endfacet
  facet normal 0.933581 -0.358368 0
    outer loop
      vertex 9.98609 -3.24468 20
      vertex 9.59223 -4.27074 20
      vertex 9.98609 -3.24468 0
    endloop
  endfacet
  facet normal 0.965926 -0.25882 0
    outer loop
      vertex 9.98609 -3.24468 20
      vertex 9.98609 -3.24468 0
      vertex 10.2706 -2.18307 0
    endloop
  endfacet
  facet normal 0.965926 -0.25882 0
    outer loop
      vertex 10.2706 -2.18307 20
      vertex 9.98609 -3.24468 20
      vertex 10.2706 -2.18307 0
    endloop
  endfacet
  facet normal 0.987688 -0.156434 0
    outer loop
      vertex 10.2706 -2.18307 20
      vertex 10.2706 -2.18307 0
      vertex 10.4425 -1.09755 0
    endloop
  endfacet
  facet normal 0.987688 -0.156434 0
    outer loop
      vertex 10.4425 -1.09755 20
      vertex 10.2706 -2.18307 20
      vertex 10.4425 -1.09755 0
    endloop
  endfacet
  facet normal 0.99863 -0.0523359 0
    outer loop
      vertex 10.4425 -1.09755 20
      vertex 10.4425 -1.09755 0
      vertex 10.5 0 0
    endloop
  endfacet
  facet normal 0.99863 -0.0523359 0
    outer loop
      vertex 10.5 0 20
      vertex 10.4425 -1.09755 20
      vertex 10.5 0 0
    endloop
  endfacet
  facet normal 0.99863 0.0523359 0
    outer loop
      vertex 10.5 0 0
      vertex 10.4425 1.09755 0
      vertex 10.4425 1.09755 20
    endloop
  endfacet
  facet normal 0.99863 0.0523359 0
    outer loop
      vertex 10.5 0 20
      vertex 10.5 0 0
      vertex 10.4425 1.09755 20
    endloop
  endfacet
  facet normal 0.987688 0.156434 0
    outer loop
      vertex 10.4425 1.09755 0
      vertex 10.2706 2.18307 0
      vertex 10.2706 2.18307 20
    endloop
  endfacet
  facet normal 0.987688 0.156434 0
    outer loop
      vertex 10.4425 1.09755 20
      vertex 10.4425 1.09755 0
      vertex 10.2706 2.18307 20
    endloop
  endfacet
  facet normal 0.965926 0.25882 0
    outer loop
      vertex 10.2706 2.18307 0
      vertex 9.98609 3.24468 0
      vertex 9.98609 3.24468 20
    endloop
  endfacet
  facet normal 0.965926 0.25882 0
    outer loop
      vertex 10.2706 2.18307 20
      vertex 10.2706 2.18307 0
      vertex 9.98609 3.24468 20
    endloop
  endfacet
  facet normal 0.933581 0.358368 0
    outer loop
      vertex 9.98609 3.24468 0
      vertex 9.59223 4.27074 0
      vertex 9.59223 4.27074 20
    endloop
  endfacet
  facet normal 0.933581 0.358368 0
    outer loop
      vertex 9.98609 3.24468 20
      vertex 9.98609 3.24468 0
      vertex 9.59223 4.27074 20
    endloop
  endfacet
  facet normal 0.891007 0.45399 0
    outer loop
      vertex 9.59223 4.27074 0
      vertex 9.09327 5.25 0
      vertex 9.09327 5.25 20
    endloop
  endfacet
  facet normal 0.891007 0.45399 0
    outer loop
      vertex 9.59223 4.27074 20
      vertex 9.59223 4.27074 0
      vertex 9.09327 5.25 20
    endloop
  endfacet
  facet normal 0.83867 0.54464 0
    outer loop
      vertex 9.09327 5.25 0
      vertex 8.49468 6.17174 0
      vertex 8.49468 6.17174 20
    endloop
  endfacet
  facet normal 0.83867 0.54464 0
    outer loop
      vertex 9.09327 5.25 20
      vertex 9.09327 5.25 0
      vertex 8.49468 6.17174 20
    endloop
  endfacet
  facet normal 0.777146 0.62932 0
    outer loop
      vertex 8.49468 6.17174 0
      vertex 7.80302 7.02587 0
      vertex 7.80302 7.02587 20
    endloop
  endfacet
  facet normal 0.777146 0.62932 0
    outer loop
      vertex 8.49468 6.17174 20
      vertex 8.49468 6.17174 0
      vertex 7.80302 7.02587 20
    endloop
  endfacet
  facet normal 0.707107 0.707107 0
    outer loop
      vertex 7.02587 7.80302 0
      vertex 7.02587 7.80302 20
      vertex 7.80302 7.02587 0
    endloop
  endfacet
  facet normal 0.707107 0.707107 0
    outer loop
      vertex 7.80302 7.02587 0
      vertex 7.02587 7.80302 20
      vertex 7.80302 7.02587 20
    endloop
  endfacet
  facet normal 0.62932 0.777146 0
    outer loop
      vertex 6.17174 8.49468 0
      vertex 6.17174 8.49468 20
      vertex 7.02587 7.80302 0
    endloop
  endfacet
  facet normal 0.62932 0.777146 0
    outer loop
      vertex 7.02587 7.80302 0
      vertex 6.17174 8.49468 20
      vertex 7.02587 7.80302 20
    endloop
  endfacet
  facet normal 0.54464 0.83867 0
    outer loop
      vertex 5.25 9.09327 0
      vertex 5.25 9.09327 20
      vertex 6.17174 8.49468 0
    endloop
  endfacet
  facet normal 0.54464 0.83867 0
    outer loop
      vertex 6.17174 8.49468 0
      vertex 5.25 9.09327 20
      vertex 6.17174 8.49468 20
    endloop
  endfacet
  facet normal 0.45399 0.891007 0
    outer loop
      vertex 4.27074 9.59223 0
      vertex 4.27074 9.59223 20
      vertex 5.25 9.09327 0
    endloop
  endfacet
  facet normal 0.45399 0.891007 0
    outer loop
      vertex 5.25 9.09327 0
      vertex 4.27074 9.59223 20
      vertex 5.25 9.09327 20
    endloop
  endfacet
  facet normal 0.358368 0.933581 0
    outer loop
      vertex 3.24468 9.98609 0
      vertex 3.24468 9.98609 20
      vertex 4.27074 9.59223 0
    endloop
  endfacet
  facet normal 0.358368 0.933581 0
    outer loop
      vertex 4.27074 9.59223 0
      vertex 3.24468 9.98609 20
      vertex 4.27074 9.59223 20
    endloop
  endfacet
  facet normal 0.25882 0.965926 0
    outer loop
      vertex 2.18307 10.2706 0
      vertex 2.18307 10.2706 20
      vertex 3.24468 9.98609 0
    endloop
  endfacet
  facet normal 0.25882 0.965926 0
    outer loop
      vertex 3.24468 9.98609 0
      vertex 2.18307 10.2706 20
      vertex 3.24468 9.98609 20
    endloop
  endfacet
  facet normal 0.156434 0.987688 0
    outer loop
      vertex 1.09755 10.4425 0
      vertex 1.09755 10.4425 20
      vertex 2.18307 10.2706 0
    endloop
  endfacet
  facet normal 0.156434 0.987688 0
    outer loop
      vertex 2.18307 10.2706 0
      vertex 1.09755 10.4425 20
      vertex 2.18307 10.2706 20
    endloop
  endfacet
  facet normal 0.0523359 0.99863 0
    outer loop
      vertex 0 10.5 0
      vertex 0 10.5 20
      vertex 1.09755 10.4425 0
    endloop
  endfacet
  facet normal 0.0523359 0.99863 0
    outer loop
      vertex 1.09755 10.4425 0
      vertex 0 10.5 20
      vertex 1.09755 10.4425 20
    endloop
  endfacet
  facet normal -0.0523359 0.99863 0
    outer loop
      vertex -1.09755 10.4425 0
      vertex -1.09755 10.4425 20
      vertex 0 10.5 0
    endloop
  endfacet
  facet normal -0.0523359 0.99863 0
    outer loop
      vertex 0 10.5 0
      vertex -1.09755 10.4425 20
      vertex 0 10.5 20
    endloop
  endfacet
  facet normal -0.156434 0.987688 0
    outer loop
      vertex -2.18307 10.2706 0
      vertex -2.18307 10.2706 20
      vertex -1.09755 10.4425 0
    endloop
  endfacet
  facet normal -0.156434 0.987688 0
    outer loop
      vertex -1.09755 10.4425 0
      vertex -2.18307 10.2706 20
      vertex -1.09755 10.4425 20
    endloop
  endfacet
  facet normal -0.25882 0.965926 0
    outer loop
      vertex -3.24468 9.98609 0
      vertex -3.24468 9.98609 20
      vertex -2.18307 10.2706 0
    endloop
  endfacet
  facet normal -0.25882 0.965926 0
    outer loop
      vertex -2.18307 10.2706 0
      vertex -3.24468 9.98609 20
      vertex -2.18307 10.2706 20
    endloop
  endfacet
  facet normal -0.358368 0.933581 0
    outer loop
      vertex -4.27074 9.59223 0
      vertex -4.27074 9.59223 20
      vertex -3.24468 9.98609 0
    endloop
  endfacet
  facet normal -0.358368 0.933581 0
    outer loop
      vertex -3.24468 9.98609 0
      vertex -4.27074 9.59223 20
      vertex -3.24468 9.98609 20
    endloop
  endfacet
  facet normal -0.45399 0.891007 0
    outer loop
      vertex -5.25 9.09327 0
      vertex -5.25 9.09327 20
      vertex -4.27074 9.59223 0
    endloop
  endfacet
  facet normal -0.45399 0.891007 0
    outer loop
      vertex -4.27074 9.59223 0
      vertex -5.25 9.09327 20
      vertex -4.27074 9.59223 20
    endloop
  endfacet
  facet normal -0.54464 0.83867 0
    outer loop
      vertex -6.17174 8.49468 0
      vertex -6.17174 8.49468 20
      vertex -5.25 9.09327 0
    endloop
  endfacet
  facet normal -0.54464 0.83867 0
    outer loop
      vertex -5.25 9.09327 0
      vertex -6.17174 8.49468 20
      vertex -5.25 9.09327 20
    endloop
  endfacet
  facet normal -0.62932 0.777146 0
    outer loop
      vertex -7.02587 7.80302 0
      vertex -7.02587 7.80302 20
      vertex -6.17174 8.49468 0
    endloop
  endfacet
  facet normal -0.62932 0.777146 0
    outer loop
      vertex -6.17174 8.49468 0
      vertex -7.02587 7.80302 20
      vertex -6.17174 8.49468 20
    endloop
  endfacet
  facet normal -0.707107 0.707107 0
    outer loop
      vertex -7.80302 7.02587 0
      vertex -7.80302 7.02587 20
      vertex -7.02587 7.80302 0
    endloop
  endfacet
  facet normal -0.707107 0.707107 0
    outer loop
      vertex -7.02587 7.80302 0
      vertex -7.80302 7.02587 20
      vertex -7.02587 7.80302 20
    endloop
  endfacet
  facet normal -0.777146 0.62932 0
    outer loop
      vertex -8.49468 6.17174 0
      vertex -8.49468 6.17174 20
      vertex -7.80302 7.02587 0
    endloop
  endfacet
  facet normal -0.777146 0.62932 0
    outer loop
      vertex -7.80302 7.02587 0
      vertex -8.49468 6.17174 20
      vertex -7.80302 7.02587 20
    endloop
  endfacet
  facet normal -0.83867 0.54464 0
    outer loop
      vertex -9.09327 5.25 0
      vertex -9.09327 5.25 20
      vertex -8.49468 6.17174 0
    endloop
  endfacet
  facet normal -0.83867 0.54464 0
    outer loop
      vertex -8.49468 6.17174 0
      vertex -9.09327 5.25 20
      vertex -8.49468 6.17174 20
    endloop
  endfacet
  facet normal -0.891007 0.45399 0
    outer loop
      vertex -9.59223 4.27074 0
      vertex -9.59223 4.27074 20
      vertex -9.09327 5.25 0
    endloop
  endfacet
  facet normal -0.891007 0.45399 0
    outer loop
      vertex -9.09327 5.25 0
      vertex -9.59223 4.27074 20
      vertex -9.09327 5.25 20
    endloop
  endfacet
  facet normal -0.933581 0.358368 0
    outer loop
      vertex -9.98609 3.24468 0
      vertex -9.98609 3.24468 20
      vertex -9.59223 4.27074 0
    endloop
  endfacet
  facet normal -0.933581 0.358368 0
    outer loop
      vertex -9.59223 4.27074 0
      vertex -9.98609 3.24468 20
      vertex -9.59223 4.27074 20
    endloop
  endfacet
  facet normal -0.965926 0.25882 0
    outer loop
      vertex -10.2706 2.18307 0
      vertex -10.2706 2.18307 20
      vertex -9.98609 3.24468 0
    endloop
  endfacet
  facet normal -0.965926 0.25882 0
    outer loop
      vertex -9.98609 3.24468 0
      vertex -10.2706 2.18307 20
      vertex -9.98609 3.24468 20
    endloop
  endfacet
  facet normal -0.987688 0.156434 0
    outer loop
      vertex -10.4425 1.09755 0
      vertex -10.4425 1.09755 20
      vertex -10.2706 2.18307 0
    endloop
  endfacet
  facet normal -0.987688 0.156434 0
    outer loop
      vertex -10.2706 2.18307 0
      vertex -10.4425 1.09755 20
      vertex -10.2706 2.18307 20
    endloop
  endfacet
  facet normal 0.99863 -0.0523358 0
    outer loop
      vertex -2.0885 0.21951 0
      vertex -2.0885 0.21951 20
      vertex -2.1 0 20
    endloop
  endfacet
  facet normal 0.99863 -0.0523358 0
    outer loop
      vertex -2.1 0 0
      vertex -2.0885 0.21951 0
      vertex -2.1 0 20
    endloop
  endfacet
  facet normal 0.99863 0.0523358 0
    outer loop
      vertex -2.1 0 20
      vertex -2.0885 -0.21951 20
      vertex -2.0885 -0.21951 0
    endloop
  endfacet
  facet normal 0.99863 0.0523358 0
    outer loop
      vertex -2.1 0 0
      vertex -2.1 0 20
      vertex -2.0885 -0.21951 0
    endloop
  endfacet
  facet normal 0.987688 -0.156434 0
    outer loop
      vertex -2.05411 0.436615 0
      vertex -2.05411 0.436615 20
      vertex -2.0885 0.21951 20
    endloop
  endfacet
  facet normal 0.987688 -0.156434 0
    outer loop
      vertex -2.0885 0.21951 0
      vertex -2.05411 0.436615 0
      vertex -2.0885 0.21951 20
    endloop
  endfacet
  facet normal 0.965926 -0.258818 0
    outer loop
      vertex -1.99722 0.648936 0
      vertex -1.99722 0.648936 20
      vertex -2.05411 0.436615 20
    endloop
  endfacet
  facet normal 0.965926 -0.258818 0
    outer loop
      vertex -2.05411 0.436615 0
      vertex -1.99722 0.648936 0
      vertex -2.05411 0.436615 20
    endloop
  endfacet
  facet normal 0.933579 -0.358371 0
    outer loop
      vertex -1.91844 0.854147 0
      vertex -1.91844 0.854147 20
      vertex -1.99722 0.648936 20
    endloop
  endfacet
  facet normal 0.933579 -0.358371 0
    outer loop
      vertex -1.99722 0.648936 0
      vertex -1.91844 0.854147 0
      vertex -1.99722 0.648936 20
    endloop
  endfacet
  facet normal 0.891007 -0.45399 0
    outer loop
      vertex -1.81865 1.05 0
      vertex -1.81865 1.05 20
      vertex -1.91844 0.854147 20
    endloop
  endfacet
  facet normal 0.891007 -0.45399 0
    outer loop
      vertex -1.91844 0.854147 0
      vertex -1.81865 1.05 0
      vertex -1.91844 0.854147 20
    endloop
  endfacet
  facet normal 0.838672 -0.544637 0
    outer loop
      vertex -1.69894 1.23435 0
      vertex -1.69894 1.23435 20
      vertex -1.81865 1.05 20
    endloop
  endfacet
  facet normal 0.838672 -0.544637 0
    outer loop
      vertex -1.81865 1.05 0
      vertex -1.69894 1.23435 0
      vertex -1.81865 1.05 20
    endloop
  endfacet
  facet normal 0.777145 -0.629322 0
    outer loop
      vertex -1.5606 1.40517 0
      vertex -1.5606 1.40517 20
      vertex -1.69894 1.23435 20
    endloop
  endfacet
  facet normal 0.777145 -0.629322 0
    outer loop
      vertex -1.69894 1.23435 0
      vertex -1.5606 1.40517 0
      vertex -1.69894 1.23435 20
    endloop
  endfacet
  facet normal 0.707107 -0.707107 0
    outer loop
      vertex -1.40517 1.5606 0
      vertex -1.40517 1.5606 20
      vertex -1.5606 1.40517 20
    endloop
  endfacet
  facet normal 0.707107 -0.707107 0
    outer loop
      vertex -1.5606 1.40517 0
      vertex -1.40517 1.5606 0
      vertex -1.5606 1.40517 20
    endloop
  endfacet
  facet normal 0.629322 -0.777145 0
    outer loop
      vertex -1.23435 1.69894 0
      vertex -1.23435 1.69894 20
      vertex -1.40517 1.5606 20
    endloop
  endfacet
  facet normal 0.629322 -0.777145 0
    outer loop
      vertex -1.40517 1.5606 0
      vertex -1.23435 1.69894 0
      vertex -1.40517 1.5606 20
    endloop
  endfacet
  facet normal 0.544637 -0.838672 0
    outer loop
      vertex -1.05 1.81865 0
      vertex -1.05 1.81865 20
      vertex -1.23435 1.69894 20
    endloop
  endfacet
  facet normal 0.544637 -0.838672 0
    outer loop
      vertex -1.23435 1.69894 0
      vertex -1.05 1.81865 0
      vertex -1.23435 1.69894 20
    endloop
  endfacet
  facet normal 0.45399 -0.891007 0
    outer loop
      vertex -0.854147 1.91844 0
      vertex -0.854147 1.91844 20
      vertex -1.05 1.81865 20
    endloop
  endfacet
  facet normal 0.45399 -0.891007 0
    outer loop
      vertex -1.05 1.81865 0
      vertex -0.854147 1.91844 0
      vertex -1.05 1.81865 20
    endloop
  endfacet
  facet normal 0.358371 -0.933579 0
    outer loop
      vertex -0.648936 1.99722 0
      vertex -0.648936 1.99722 20
      vertex -0.854147 1.91844 20
    endloop
  endfacet
  facet normal 0.358371 -0.933579 0
    outer loop
      vertex -0.854147 1.91844 0
      vertex -0.648936 1.99722 0
      vertex -0.854147 1.91844 20
    endloop
  endfacet
  facet normal 0.258818 -0.965926 0
    outer loop
      vertex -0.436615 2.05411 0
      vertex -0.436615 2.05411 20
      vertex -0.648936 1.99722 20
    endloop
  endfacet
  facet normal 0.258818 -0.965926 0
    outer loop
      vertex -0.648936 1.99722 0
      vertex -0.436615 2.05411 0
      vertex -0.648936 1.99722 20
    endloop
  endfacet
  facet normal 0.156434 -0.987688 0
    outer loop
      vertex -0.21951 2.0885 0
      vertex -0.21951 2.0885 20
      vertex -0.436615 2.05411 20
    endloop
  endfacet
  facet normal 0.156434 -0.987688 0
    outer loop
      vertex -0.436615 2.05411 0
      vertex -0.21951 2.0885 0
      vertex -0.436615 2.05411 20
    endloop
  endfacet
  facet normal 0.0523358 -0.99863 0
    outer loop
      vertex 0 2.1 0
      vertex 0 2.1 20
      vertex -0.21951 2.0885 20
    endloop
  endfacet
  facet normal 0.0523358 -0.99863 0
    outer loop
      vertex -0.21951 2.0885 0
      vertex 0 2.1 0
      vertex -0.21951 2.0885 20
    endloop
  endfacet
  facet normal -0.0523358 -0.99863 0
    outer loop
      vertex 0.21951 2.0885 0
      vertex 0.21951 2.0885 20
      vertex 0 2.1 20
    endloop
  endfacet
  facet normal -0.0523358 -0.99863 0
    outer loop
      vertex 0 2.1 0
      vertex 0.21951 2.0885 0
      vertex 0 2.1 20
    endloop
  endfacet
  facet normal -0.156434 -0.987688 0
    outer loop
      vertex 0.436615 2.05411 0
      vertex 0.436615 2.05411 20
      vertex 0.21951 2.0885 20
    endloop
  endfacet
  facet normal -0.156434 -0.987688 0
    outer loop
      vertex 0.21951 2.0885 0
      vertex 0.436615 2.05411 0
      vertex 0.21951 2.0885 20
    endloop
  endfacet
  facet normal -0.258818 -0.965926 0
    outer loop
      vertex 0.648936 1.99722 0
      vertex 0.648936 1.99722 20
      vertex 0.436615 2.05411 20
    endloop
  endfacet
  facet normal -0.258818 -0.965926 0
    outer loop
      vertex 0.436615 2.05411 0
      vertex 0.648936 1.99722 0
      vertex 0.436615 2.05411 20
    endloop
  endfacet
  facet normal -0.358371 -0.933579 0
    outer loop
      vertex 0.854147 1.91844 0
      vertex 0.854147 1.91844 20
      vertex 0.648936 1.99722 20
    endloop
  endfacet
  facet normal -0.358371 -0.933579 0
    outer loop
      vertex 0.648936 1.99722 0
      vertex 0.854147 1.91844 0
      vertex 0.648936 1.99722 20
    endloop
  endfacet
  facet normal -0.45399 -0.891007 0
    outer loop
      vertex 1.05 1.81865 0
      vertex 1.05 1.81865 20
      vertex 0.854147 1.91844 20
    endloop
  endfacet
  facet normal -0.45399 -0.891007 0
    outer loop
      vertex 0.854147 1.91844 0
      vertex 1.05 1.81865 0
      vertex 0.854147 1.91844 20
    endloop
  endfacet
  facet normal -0.544637 -0.838672 0
    outer loop
      vertex 1.23435 1.69894 0
      vertex 1.23435 1.69894 20
      vertex 1.05 1.81865 20
    endloop
  endfacet
  facet normal -0.544637 -0.838672 0
    outer loop
      vertex 1.05 1.81865 0
      vertex 1.23435 1.69894 0
      vertex 1.05 1.81865 20
    endloop
  endfacet
  facet normal -0.629322 -0.777145 0
    outer loop
      vertex 1.40517 1.5606 0
      vertex 1.40517 1.5606 20
      vertex 1.23435 1.69894 20
    endloop
  endfacet
  facet normal -0.629322 -0.777145 0
    outer loop
      vertex 1.23435 1.69894 0
      vertex 1.40517 1.5606 0
      vertex 1.23435 1.69894 20
    endloop
  endfacet
  facet normal -0.707107 -0.707107 0
    outer loop
      vertex 1.5606 1.40517 0
      vertex 1.5606 1.40517 20
      vertex 1.40517 1.5606 20
    endloop
  endfacet
  facet normal -0.707107 -0.707107 0
    outer loop
      vertex 1.40517 1.5606 0
      vertex 1.5606 1.40517 0
      vertex 1.40517 1.5606 20
    endloop
  endfacet
  facet normal -0.777145 -0.629322 0
    outer loop
      vertex 1.69894 1.23435 20
      vertex 1.5606 1.40517 20
      vertex 1.69894 1.23435 0
    endloop
  endfacet
  facet normal -0.777145 -0.629322 0
    outer loop
      vertex 1.69894 1.23435 0
      vertex 1.5606 1.40517 20
      vertex 1.5606 1.40517 0
    endloop
  endfacet
  facet normal -0.838672 -0.544637 0
    outer loop
      vertex 1.81865 1.05 20
      vertex 1.69894 1.23435 20
      vertex 1.81865 1.05 0
    endloop
  endfacet
  facet normal -0.838672 -0.544637 0
    outer loop
      vertex 1.81865 1.05 0
      vertex 1.69894 1.23435 20
      vertex 1.69894 1.23435 0
    endloop
  endfacet
  facet normal -0.891007 -0.45399 0
    outer loop
      vertex 1.91844 0.854147 20
      vertex 1.81865 1.05 20
      vertex 1.91844 0.854147 0
    endloop
  endfacet
  facet normal -0.891007 -0.45399 0
    outer loop
      vertex 1.91844 0.854147 0
      vertex 1.81865 1.05 20
      vertex 1.81865 1.05 0
    endloop
  endfacet
  facet normal -0.933579 -0.358371 0
    outer loop
      vertex 1.99722 0.648936 20
      vertex 1.91844 0.854147 20
      vertex 1.99722 0.648936 0
    endloop
  endfacet
  facet normal -0.933579 -0.358371 0
    outer loop
      vertex 1.99722 0.648936 0
      vertex 1.91844 0.854147 20
      vertex 1.91844 0.854147 0
    endloop
  endfacet
  facet normal -0.965926 -0.258818 0
    outer loop
      vertex 2.05411 0.436615 20
      vertex 1.99722 0.648936 20
      vertex 2.05411 0.436615 0
    endloop
  endfacet
  facet normal -0.965926 -0.258818 0
    outer loop
      vertex 2.05411 0.436615 0
      vertex 1.99722 0.648936 20
      vertex 1.99722 0.648936 0
    endloop
  endfacet
  facet normal -0.987688 -0.156434 0
    outer loop
      vertex 2.0885 0.21951 20
      vertex 2.05411 0.436615 20
      vertex 2.0885 0.21951 0
    endloop
  endfacet
  facet normal -0.987688 -0.156434 0
    outer loop
      vertex 2.0885 0.21951 0
      vertex 2.05411 0.436615 20
      vertex 2.05411 0.436615 0
    endloop
  endfacet
  facet normal -0.99863 -0.0523358 0
    outer loop
      vertex 2.1 0 20
      vertex 2.0885 0.21951 20
      vertex 2.1 0 0
    endloop
  endfacet
  facet normal -0.99863 -0.0523358 0
    outer loop
      vertex 2.1 0 0
      vertex 2.0885 0.21951 20
      vertex 2.0885 0.21951 0
    endloop
  endfacet
  facet normal -0.99863 0.0523358 0
    outer loop
      vertex 2.1 0 20
      vertex 2.1 0 0
      vertex 2.0885 -0.21951 20
    endloop
  endfacet
  facet normal -0.99863 0.0523358 0
    outer loop
      vertex 2.0885 -0.21951 20
      vertex 2.1 0 0
      vertex 2.0885 -0.21951 0
    endloop
  endfacet
  facet normal -0.987688 0.156434 0
    outer loop
      vertex 2.0885 -0.21951 20
      vertex 2.0885 -0.21951 0
      vertex 2.05411 -0.436615 20
    endloop
  endfacet
  facet normal -0.987688 0.156434 0
    outer loop
      vertex 2.05411 -0.436615 20
      vertex 2.0885 -0.21951 0
      vertex 2.05411 -0.436615 0
    endloop
  endfacet
  facet normal -0.965926 0.258818 0
    outer loop
      vertex 2.05411 -0.436615 20
      vertex 2.05411 -0.436615 0
      vertex 1.99722 -0.648936 20
    endloop
  endfacet
  facet normal -0.965926 0.258818 0
    outer loop
      vertex 1.99722 -0.648936 20
      vertex 2.05411 -0.436615 0
      vertex 1.99722 -0.648936 0
    endloop
  endfacet
  facet normal -0.933579 0.358371 0
    outer loop
      vertex 1.99722 -0.648936 20
      vertex 1.99722 -0.648936 0
      vertex 1.91844 -0.854147 20
    endloop
  endfacet
  facet normal -0.933579 0.358371 0
    outer loop
      vertex 1.91844 -0.854147 20
      vertex 1.99722 -0.648936 0
      vertex 1.91844 -0.854147 0
    endloop
  endfacet
  facet normal -0.891007 0.45399 0
    outer loop
      vertex 1.91844 -0.854147 20
      vertex 1.91844 -0.854147 0
      vertex 1.81865 -1.05 20
    endloop
  endfacet
  facet normal -0.891007 0.45399 0
    outer loop
      vertex 1.81865 -1.05 20
      vertex 1.91844 -0.854147 0
      vertex 1.81865 -1.05 0
    endloop
  endfacet
  facet normal -0.838672 0.544637 0
    outer loop
      vertex 1.81865 -1.05 20
      vertex 1.81865 -1.05 0
      vertex 1.69894 -1.23435 20
    endloop
  endfacet
  facet normal -0.838672 0.544637 0
    outer loop
      vertex 1.69894 -1.23435 20
      vertex 1.81865 -1.05 0
      vertex 1.69894 -1.23435 0
    endloop
  endfacet
  facet normal -0.777145 0.629322 0
    outer loop
      vertex 1.69894 -1.23435 20
      vertex 1.69894 -1.23435 0
      vertex 1.5606 -1.40517 20
    endloop
  endfacet
  facet normal -0.777145 0.629322 0
    outer loop
      vertex 1.5606 -1.40517 20
      vertex 1.69894 -1.23435 0
      vertex 1.5606 -1.40517 0
    endloop
  endfacet
  facet normal -0.707107 0.707107 0
    outer loop
      vertex 1.5606 -1.40517 20
      vertex 1.5606 -1.40517 0
      vertex 1.40517 -1.5606 20
    endloop
  endfacet
  facet normal -0.707107 0.707107 0
    outer loop
      vertex 1.40517 -1.5606 20
      vertex 1.5606 -1.40517 0
      vertex 1.40517 -1.5606 0
    endloop
  endfacet
  facet normal -0.629322 0.777145 0
    outer loop
      vertex 1.40517 -1.5606 20
      vertex 1.40517 -1.5606 0
      vertex 1.23435 -1.69894 20
    endloop
  endfacet
  facet normal -0.629322 0.777145 0
    outer loop
      vertex 1.23435 -1.69894 20
      vertex 1.40517 -1.5606 0
      vertex 1.23435 -1.69894 0
    endloop
  endfacet
  facet normal -0.544637 0.838672 0
    outer loop
      vertex 1.23435 -1.69894 20
      vertex 1.23435 -1.69894 0
      vertex 1.05 -1.81865 20
    endloop
  endfacet
  facet normal -0.544637 0.838672 0
    outer loop
      vertex 1.05 -1.81865 20
      vertex 1.23435 -1.69894 0
      vertex 1.05 -1.81865 0
    endloop
  endfacet
  facet normal -0.45399 0.891007 0
    outer loop
      vertex 1.05 -1.81865 20
      vertex 1.05 -1.81865 0
      vertex 0.854147 -1.91844 20
    endloop
  endfacet
  facet normal -0.45399 0.891007 0
    outer loop
      vertex 0.854147 -1.91844 20
      vertex 1.05 -1.81865 0
      vertex 0.854147 -1.91844 0
    endloop
  endfacet
  facet normal -0.358371 0.933579 0
    outer loop
      vertex 0.854147 -1.91844 20
      vertex 0.854147 -1.91844 0
      vertex 0.648936 -1.99722 20
    endloop
  endfacet
  facet normal -0.358371 0.933579 0
    outer loop
      vertex 0.648936 -1.99722 20
      vertex 0.854147 -1.91844 0
      vertex 0.648936 -1.99722 0
    endloop
  endfacet
  facet normal -0.258818 0.965926 0
    outer loop
      vertex 0.648936 -1.99722 20
      vertex 0.648936 -1.99722 0
      vertex 0.436615 -2.05411 20
    endloop
  endfacet
  facet normal -0.258818 0.965926 0
    outer loop
      vertex 0.436615 -2.05411 20
      vertex 0.648936 -1.99722 0
      vertex 0.436615 -2.05411 0
    endloop
  endfacet
  facet normal -0.156434 0.987688 0
    outer loop
      vertex 0.436615 -2.05411 20
      vertex 0.436615 -2.05411 0
      vertex 0.21951 -2.0885 20
    endloop
  endfacet
  facet normal -0.156434 0.987688 0
    outer loop
      vertex 0.21951 -2.0885 20
      vertex 0.436615 -2.05411 0
      vertex 0.21951 -2.0885 0
    endloop
  endfacet
  facet normal -0.0523358 0.99863 0
    outer loop
      vertex 0.21951 -2.0885 20
      vertex 0.21951 -2.0885 0
      vertex 0 -2.1 20
    endloop
  endfacet
  facet normal -0.0523358 0.99863 0
    outer loop
      vertex 0 -2.1 20
      vertex 0.21951 -2.0885 0
      vertex 0 -2.1 0
    endloop
  endfacet
  facet normal 0.0523358 0.99863 0
    outer loop
      vertex 0 -2.1 20
      vertex 0 -2.1 0
      vertex -0.21951 -2.0885 20
    endloop
  endfacet
  facet normal 0.0523358 0.99863 0
    outer loop
      vertex -0.21951 -2.0885 20
      vertex 0 -2.1 0
      vertex -0.21951 -2.0885 0
    endloop
  endfacet
  facet normal 0.156434 0.987688 0
    outer loop
      vertex -0.21951 -2.0885 20
      vertex -0.21951 -2.0885 0
      vertex -0.436615 -2.05411 20
    endloop
  endfacet
  facet normal 0.156434 0.987688 0
    outer loop
      vertex -0.436615 -2.05411 20
      vertex -0.21951 -2.0885 0
      vertex -0.436615 -2.05411 0
    endloop
  endfacet
  facet normal 0.258818 0.965926 0
    outer loop
      vertex -0.436615 -2.05411 20
      vertex -0.436615 -2.05411 0
      vertex -0.648936 -1.99722 20
    endloop
  endfacet
  facet normal 0.258818 0.965926 0
    outer loop
      vertex -0.648936 -1.99722 20
      vertex -0.436615 -2.05411 0
      vertex -0.648936 -1.99722 0
    endloop
  endfacet
  facet normal 0.358371 0.933579 0
    outer loop
      vertex -0.648936 -1.99722 20
      vertex -0.648936 -1.99722 0
      vertex -0.854147 -1.91844 20
    endloop
  endfacet
  facet normal 0.358371 0.933579 0
    outer loop
      vertex -0.854147 -1.91844 20
      vertex -0.648936 -1.99722 0
      vertex -0.854147 -1.91844 0
    endloop
  endfacet
  facet normal 0.45399 0.891007 0
    outer loop
      vertex -0.854147 -1.91844 20
      vertex -0.854147 -1.91844 0
      vertex -1.05 -1.81865 20
    endloop
  endfacet
  facet normal 0.45399 0.891007 0
    outer loop
      vertex -1.05 -1.81865 20
      vertex -0.854147 -1.91844 0
      vertex -1.05 -1.81865 0
    endloop
  endfacet
  facet normal 0.544637 0.838672 0
    outer loop
      vertex -1.05 -1.81865 20
      vertex -1.05 -1.81865 0
      vertex -1.23435 -1.69894 20
    endloop
  endfacet
  facet normal 0.544637 0.838672 0
    outer loop
      vertex -1.23435 -1.69894 20
      vertex -1.05 -1.81865 0
      vertex -1.23435 -1.69894 0
    endloop
  endfacet
  facet normal 0.629322 0.777145 0
    outer loop
      vertex -1.23435 -1.69894 20
      vertex -1.23435 -1.69894 0
      vertex -1.40517 -1.5606 20
    endloop
  endfacet
  facet normal 0.629322 0.777145 0
    outer loop
      vertex -1.40517 -1.5606 20
      vertex -1.23435 -1.69894 0
      vertex -1.40517 -1.5606 0
    endloop
  endfacet
  facet normal 0.707107 0.707107 0
    outer loop
      vertex -1.40517 -1.5606 20
      vertex -1.40517 -1.5606 0
      vertex -1.5606 -1.40517 20
    endloop
  endfacet
  facet normal 0.707107 0.707107 0
    outer loop
      vertex -1.5606 -1.40517 20
      vertex -1.40517 -1.5606 0
      vertex -1.5606 -1.40517 0
    endloop
  endfacet
  facet normal 0.777145 0.629322 0
    outer loop
      vertex -1.69894 -1.23435 20
      vertex -1.5606 -1.40517 20
      vertex -1.5606 -1.40517 0
    endloop
  endfacet
  facet normal 0.777145 0.629322 0
    outer loop
      vertex -1.69894 -1.23435 0
      vertex -1.69894 -1.23435 20
      vertex -1.5606 -1.40517 0
    endloop
  endfacet
  facet normal 0.838672 0.544637 0
    outer loop
      vertex -1.81865 -1.05 20
      vertex -1.69894 -1.23435 20
      vertex -1.69894 -1.23435 0
    endloop
  endfacet
  facet normal 0.838672 0.544637 0
    outer loop
      vertex -1.81865 -1.05 0
      vertex -1.81865 -1.05 20
      vertex -1.69894 -1.23435 0
    endloop
  endfacet
  facet normal 0.891007 0.45399 0
    outer loop
      vertex -1.91844 -0.854147 20
      vertex -1.81865 -1.05 20
      vertex -1.81865 -1.05 0
    endloop
  endfacet
  facet normal 0.891007 0.45399 0
    outer loop
      vertex -1.91844 -0.854147 0
      vertex -1.91844 -0.854147 20
      vertex -1.81865 -1.05 0
    endloop
  endfacet
  facet normal 0.933579 0.358371 0
    outer loop
      vertex -1.99722 -0.648936 20
      vertex -1.91844 -0.854147 20
      vertex -1.91844 -0.854147 0
    endloop
  endfacet
  facet normal 0.933579 0.358371 0
    outer loop
      vertex -1.99722 -0.648936 0
      vertex -1.99722 -0.648936 20
      vertex -1.91844 -0.854147 0
    endloop
  endfacet
  facet normal 0.965926 0.258818 0
    outer loop
      vertex -2.05411 -0.436615 20
      vertex -1.99722 -0.648936 20
      vertex -1.99722 -0.648936 0
    endloop
  endfacet
  facet normal 0.965926 0.258818 0
    outer loop
      vertex -2.05411 -0.436615 0
      vertex -2.05411 -0.436615 20
      vertex -1.99722 -0.648936 0
    endloop
  endfacet
  facet normal 0.987688 0.156434 0
    outer loop
      vertex -2.0885 -0.21951 20
      vertex -2.05411 -0.436615 20
      vertex -2.05411 -0.436615 0
    endloop
  endfacet
  facet normal 0.987688 0.156434 0
    outer loop
      vertex -2.0885 -0.21951 0
      vertex -2.0885 -0.21951 20
      vertex -2.05411 -0.436615 0
    endloop
  endfacet
  facet normal 0 0 1
    outer loop
      vertex -10.4425 1.09755 20
      vertex -10.5 0 20
      vertex -10.4425 -1.09755 20
    endloop
  endfacet
  facet normal 0 0 1
    outer loop
      vertex -9.98609 -3.24468 20
      vertex -10.4425 1.09755 20
      vertex -10.2706 -2.18307 20
    endloop
  endfacet
  facet normal 0 0 1
    outer loop
      vertex -10.2706 -2.18307 20
      vertex -10.4425 1.09755 20
      vertex -10.4425 -1.09755 20
    endloop
  endfacet
  facet normal 0 0 1
    outer loop
      vertex -9.59223 -4.27074 20
      vertex -10.4425 1.09755 20
      vertex -9.98609 -3.24468 20
    endloop
  endfacet
  facet normal 0 0 1
    outer loop
      vertex -9.09327 -5.25 20
      vertex -10.4425 1.09755 20
      vertex -9.59223 -4.27074 20
    endloop
  endfacet
  facet normal 0 0 1
    outer loop
      vertex -8.49468 -6.17174 20
      vertex -10.4425 1.09755 20
      vertex -9.09327 -5.25 20
    endloop
  endfacet
  facet normal 0 0 1
    outer loop
      vertex -7.80302 -7.02587 20
      vertex -10.4425 1.09755 20
      vertex -8.49468 -6.17174 20
    endloop
  endfacet
  facet normal 0 0 1
    outer loop
      vertex -7.02587 -7.80302 20
      vertex -10.4425 1.09755 20
      vertex -7.80302 -7.02587 20
    endloop
  endfacet
  facet normal 0 0 1
    outer loop
      vertex -6.17174 -8.49468 20
      vertex -10.4425 1.09755 20
      vertex -7.02587 -7.80302 20
    endloop
  endfacet
  facet normal 0 0 1
    outer loop
      vertex -5.25 -9.09327 20
      vertex -10.4425 1.09755 20
      vertex -6.17174 -8.49468 20
    endloop
  endfacet
  facet normal 0 0 1
    outer loop
      vertex -4.27074 -9.59223 20
      vertex -10.4425 1.09755 20
      vertex -5.25 -9.09327 20
    endloop
  endfacet
  facet normal 0 0 1
    outer loop
      vertex -3.24468 -9.98609 20
      vertex -10.4425 1.09755 20
      vertex -4.27074 -9.59223 20
    endloop
  endfacet
  facet normal 0 0 1
    outer loop
      vertex -2.18307 -10.2706 20
      vertex -10.4425 1.09755 20
      vertex -3.24468 -9.98609 20
    endloop
  endfacet
  facet normal 0 0 1
    outer loop
      vertex -1.09755 -10.4425 20
      vertex -10.4425 1.09755 20
      vertex -2.18307 -10.2706 20
    endloop
  endfacet
  facet normal 0 0 1
    outer loop
      vertex 0 -10.5 20
      vertex -10.4425 1.09755 20
      vertex -1.09755 -10.4425 20
    endloop
  endfacet
  facet normal 0 0 1
    outer loop
      vertex 1.09755 -10.4425 20
      vertex -10.4425 1.09755 20
      vertex 0 -10.5 20
    endloop
  endfacet
  facet normal 0 0 1
    outer loop
      vertex 2.18307 -10.2706 20
      vertex -10.4425 1.09755 20
      vertex 1.09755 -10.4425 20
    endloop
  endfacet
  facet normal 0 0 1
    outer loop
      vertex 3.24468 -9.98609 20
      vertex -10.4425 1.09755 20
      vertex 2.18307 -10.2706 20
    endloop
  endfacet
  facet normal 0 0 1
    outer loop
      vertex 4.27074 -9.59223 20
      vertex -10.4425 1.09755 20
      vertex 3.24468 -9.98609 20
    endloop
  endfacet
  facet normal 0 0 1
    outer loop
      vertex 5.25 -9.09327 20
      vertex -10.4425 1.09755 20
      vertex 4.27074 -9.59223 20
    endloop
  endfacet
  facet normal 0 0 1
    outer loop
      vertex 6.17174 -8.49468 20
      vertex -10.4425 1.09755 20
      vertex 5.25 -9.09327 20
    endloop
  endfacet
  facet normal 0 0 1
    outer loop
      vertex 7.02587 -7.80302 20
      vertex -10.4425 1.09755 20
      vertex 6.17174 -8.49468 20
    endloop
  endfacet
  facet normal 0 0 1
    outer loop
      vertex 7.80302 -7.02587 20
      vertex -10.4425 1.09755 20
      vertex 7.02587 -7.80302 20
    endloop
  endfacet
  facet normal 0 0 1
    outer loop
      vertex 8.49468 -6.17174 20
      vertex -10.4425 1.09755 20
      vertex 7.80302 -7.02587 20
    endloop
  endfacet
  facet normal 0 0 1
    outer loop
      vertex 9.09327 -5.25 20
      vertex -10.4425 1.09755 20
      vertex 8.49468 -6.17174 20
    endloop
  endfacet
  facet normal 0 0 1
    outer loop
      vertex -0.648936 -1.99722 20
      vertex -10.4425 1.09755 20
      vertex 9.09327 -5.25 20
    endloop
  endfacet
  facet normal 0 0 1
    outer loop
      vertex -0.648936 -1.99722 20
      vertex -0.854147 -1.91844 20
      vertex -10.4425 1.09755 20
    endloop
  endfacet
  facet normal 0 0 1
    outer loop
      vertex 0.854147 -1.91844 20
      vertex 0.648936 -1.99722 20
      vertex 9.59223 -4.27074 20
    endloop
  endfacet
  facet normal 0 0 1
    outer loop
      vertex 2.05411 0.436615 20
      vertex 2.0885 0.21951 20
      vertex 10.5 0 20
    endloop
  endfacet
  facet normal 0 0 1
    outer loop
      vertex 1.81865 1.05 20
      vertex 1.91844 0.854147 20
      vertex 10.4425 1.09755 20
    endloop
  endfacet
  facet normal 0 0 1
    outer loop
      vertex 1.23435 1.69894 20
      vertex 1.40517 1.5606 20
      vertex 10.2706 2.18307 20
    endloop
  endfacet
  facet normal 0 0 1
    outer loop
      vertex 9.59223 4.27074 20
      vertex -10.4425 1.09755 20
      vertex 9.98609 3.24468 20
    endloop
  endfacet
  facet normal 0 0 1
    outer loop
      vertex 9.09327 5.25 20
      vertex -10.4425 1.09755 20
      vertex 9.59223 4.27074 20
    endloop
  endfacet
  facet normal 0 0 1
    outer loop
      vertex 8.49468 6.17174 20
      vertex -10.4425 1.09755 20
      vertex 9.09327 5.25 20
    endloop
  endfacet
  facet normal 0 0 1
    outer loop
      vertex 7.80302 7.02587 20
      vertex -10.4425 1.09755 20
      vertex 8.49468 6.17174 20
    endloop
  endfacet
  facet normal 0 0 1
    outer loop
      vertex 7.02587 7.80302 20
      vertex -10.4425 1.09755 20
      vertex 7.80302 7.02587 20
    endloop
  endfacet
  facet normal 0 0 1
    outer loop
      vertex 6.17174 8.49468 20
      vertex -10.4425 1.09755 20
      vertex 7.02587 7.80302 20
    endloop
  endfacet
  facet normal 0 0 1
    outer loop
      vertex 5.25 9.09327 20
      vertex -10.4425 1.09755 20
      vertex 6.17174 8.49468 20
    endloop
  endfacet
  facet normal 0 0 1
    outer loop
      vertex 4.27074 9.59223 20
      vertex -10.4425 1.09755 20
      vertex 5.25 9.09327 20
    endloop
  endfacet
  facet normal 0 0 1
    outer loop
      vertex 3.24468 9.98609 20
      vertex -10.4425 1.09755 20
      vertex 4.27074 9.59223 20
    endloop
  endfacet
  facet normal 0 0 1
    outer loop
      vertex 2.18307 10.2706 20
      vertex -10.4425 1.09755 20
      vertex 3.24468 9.98609 20
    endloop
  endfacet
  facet normal 0 0 1
    outer loop
      vertex 1.09755 10.4425 20
      vertex -10.4425 1.09755 20
      vertex 2.18307 10.2706 20
    endloop
  endfacet
  facet normal 0 0 1
    outer loop
      vertex 0 10.5 20
      vertex -10.4425 1.09755 20
      vertex 1.09755 10.4425 20
    endloop
  endfacet
  facet normal 0 0 1
    outer loop
      vertex -1.09755 10.4425 20
      vertex -10.4425 1.09755 20
      vertex 0 10.5 20
    endloop
  endfacet
  facet normal 0 0 1
    outer loop
      vertex -2.18307 10.2706 20
      vertex -10.4425 1.09755 20
      vertex -1.09755 10.4425 20
    endloop
  endfacet
  facet normal 0 0 1
    outer loop
      vertex -3.24468 9.98609 20
      vertex -10.4425 1.09755 20
      vertex -2.18307 10.2706 20
    endloop
  endfacet
  facet normal 0 0 1
    outer loop
      vertex -4.27074 9.59223 20
      vertex -10.4425 1.09755 20
      vertex -3.24468 9.98609 20
    endloop
  endfacet
  facet normal 0 0 1
    outer loop
      vertex -5.25 9.09327 20
      vertex -10.4425 1.09755 20
      vertex -4.27074 9.59223 20
    endloop
  endfacet
  facet normal 0 0 1
    outer loop
      vertex -6.17174 8.49468 20
      vertex -10.4425 1.09755 20
      vertex -5.25 9.09327 20
    endloop
  endfacet
  facet normal 0 0 1
    outer loop
      vertex -7.02587 7.80302 20
      vertex -10.4425 1.09755 20
      vertex -6.17174 8.49468 20
    endloop
  endfacet
  facet normal 0 0 1
    outer loop
      vertex -7.80302 7.02587 20
      vertex -10.4425 1.09755 20
      vertex -7.02587 7.80302 20
    endloop
  endfacet
  facet normal 0 0 1
    outer loop
      vertex -8.49468 6.17174 20
      vertex -10.4425 1.09755 20
      vertex -7.80302 7.02587 20
    endloop
  endfacet
  facet normal 0 0 1
    outer loop
      vertex -9.09327 5.25 20
      vertex -10.4425 1.09755 20
      vertex -8.49468 6.17174 20
    endloop
  endfacet
  facet normal 0 0 1
    outer loop
      vertex -9.59223 4.27074 20
      vertex -10.4425 1.09755 20
      vertex -9.09327 5.25 20
    endloop
  endfacet
  facet normal 0 0 1
    outer loop
      vertex -9.98609 3.24468 20
      vertex -10.4425 1.09755 20
      vertex -9.59223 4.27074 20
    endloop
  endfacet
  facet normal 0 0 1
    outer loop
      vertex -10.2706 2.18307 20
      vertex -10.4425 1.09755 20
      vertex -9.98609 3.24468 20
    endloop
  endfacet
  facet normal 0 0 1
    outer loop
      vertex 1.5606 -1.40517 20
      vertex 1.40517 -1.5606 20
      vertex 9.98609 -3.24468 20
    endloop
  endfacet
  facet normal 0 0 1
    outer loop
      vertex -2.1 0 20
      vertex -10.4425 1.09755 20
      vertex -2.0885 -0.21951 20
    endloop
  endfacet
  facet normal 0 0 1
    outer loop
      vertex 1.05 1.81865 20
      vertex 1.23435 1.69894 20
      vertex 10.2706 2.18307 20
    endloop
  endfacet
  facet normal 0 0 1
    outer loop
      vertex 2.0885 -0.21951 20
      vertex 2.05411 -0.436615 20
      vertex 10.4425 -1.09755 20
    endloop
  endfacet
  facet normal 0 0 1
    outer loop
      vertex -2.05411 0.436615 20
      vertex -10.4425 1.09755 20
      vertex -2.0885 0.21951 20
    endloop
  endfacet
  facet normal 0 0 1
    outer loop
      vertex -1.99722 0.648936 20
      vertex -10.4425 1.09755 20
      vertex -2.05411 0.436615 20
    endloop
  endfacet
  facet normal 0 0 1
    outer loop
      vertex -1.81865 1.05 20
      vertex -1.69894 1.23435 20
      vertex -10.4425 1.09755 20
    endloop
  endfacet
  facet normal 0 0 1
    outer loop
      vertex -1.5606 -1.40517 20
      vertex -1.69894 -1.23435 20
      vertex -10.4425 1.09755 20
    endloop
  endfacet
  facet normal 0 0 1
    outer loop
      vertex -1.81865 1.05 20
      vertex -10.4425 1.09755 20
      vertex -1.91844 0.854147 20
    endloop
  endfacet
  facet normal 0 0 1
    outer loop
      vertex -1.40517 1.5606 20
      vertex -1.23435 1.69894 20
      vertex -10.4425 1.09755 20
    endloop
  endfacet
  facet normal 0 0 1
    outer loop
      vertex 1.99722 0.648936 20
      vertex 2.05411 0.436615 20
      vertex 10.5 0 20
    endloop
  endfacet
  facet normal 0 0 1
    outer loop
      vertex -1.5606 1.40517 20
      vertex -10.4425 1.09755 20
      vertex -1.69894 1.23435 20
    endloop
  endfacet
  facet normal 0 0 1
    outer loop
      vertex -1.40517 1.5606 20
      vertex -10.4425 1.09755 20
      vertex -1.5606 1.40517 20
    endloop
  endfacet
  facet normal 0 0 1
    outer loop
      vertex -0.21951 2.0885 20
      vertex 0 2.1 20
      vertex 9.98609 3.24468 20
    endloop
  endfacet
  facet normal 0 0 1
    outer loop
      vertex 1.69894 1.23435 20
      vertex 1.81865 1.05 20
      vertex 10.4425 1.09755 20
    endloop
  endfacet
  facet normal 0 0 1
    outer loop
      vertex -1.05 1.81865 20
      vertex -10.4425 1.09755 20
      vertex -1.23435 1.69894 20
    endloop
  endfacet
  facet normal 0 0 1
    outer loop
      vertex -0.854147 1.91844 20
      vertex -10.4425 1.09755 20
      vertex -1.05 1.81865 20
    endloop
  endfacet
  facet normal 0 0 1
    outer loop
      vertex -0.648936 1.99722 20
      vertex -10.4425 1.09755 20
      vertex -0.854147 1.91844 20
    endloop
  endfacet
  facet normal 0 0 1
    outer loop
      vertex -0.436615 2.05411 20
      vertex -10.4425 1.09755 20
      vertex -0.648936 1.99722 20
    endloop
  endfacet
  facet normal 0 0 1
    outer loop
      vertex -0.21951 2.0885 20
      vertex -10.4425 1.09755 20
      vertex -0.436615 2.05411 20
    endloop
  endfacet
  facet normal 0 0 1
    outer loop
      vertex 0 2.1 20
      vertex 0.21951 2.0885 20
      vertex 9.98609 3.24468 20
    endloop
  endfacet
  facet normal 0 0 1
    outer loop
      vertex 9.98609 3.24468 20
      vertex -10.4425 1.09755 20
      vertex -0.21951 2.0885 20
    endloop
  endfacet
  facet normal 0 0 1
    outer loop
      vertex 0.21951 2.0885 20
      vertex 0.436615 2.05411 20
      vertex 9.98609 3.24468 20
    endloop
  endfacet
  facet normal 0 0 1
    outer loop
      vertex 0.436615 2.05411 20
      vertex 0.648936 1.99722 20
      vertex 9.98609 3.24468 20
    endloop
  endfacet
  facet normal 0 0 1
    outer loop
      vertex 0.648936 1.99722 20
      vertex 0.854147 1.91844 20
      vertex 9.98609 3.24468 20
    endloop
  endfacet
  facet normal 0 0 1
    outer loop
      vertex 9.98609 3.24468 20
      vertex 0.854147 1.91844 20
      vertex 10.2706 2.18307 20
    endloop
  endfacet
  facet normal 0 0 1
    outer loop
      vertex 0.854147 1.91844 20
      vertex 1.05 1.81865 20
      vertex 10.2706 2.18307 20
    endloop
  endfacet
  facet normal 0 0 1
    outer loop
      vertex 1.40517 1.5606 20
      vertex 1.5606 1.40517 20
      vertex 10.2706 2.18307 20
    endloop
  endfacet
  facet normal 0 0 1
    outer loop
      vertex 10.2706 2.18307 20
      vertex 1.5606 1.40517 20
      vertex 10.4425 1.09755 20
    endloop
  endfacet
  facet normal 0 0 1
    outer loop
      vertex 1.5606 1.40517 20
      vertex 1.69894 1.23435 20
      vertex 10.4425 1.09755 20
    endloop
  endfacet
  facet normal 0 0 1
    outer loop
      vertex 10.4425 1.09755 20
      vertex 1.91844 0.854147 20
      vertex 10.5 0 20
    endloop
  endfacet
  facet normal 0 0 1
    outer loop
      vertex 1.91844 0.854147 20
      vertex 1.99722 0.648936 20
      vertex 10.5 0 20
    endloop
  endfacet
  facet normal 0 0 1
    outer loop
      vertex 2.0885 0.21951 20
      vertex 2.1 0 20
      vertex 10.5 0 20
    endloop
  endfacet
  facet normal 0 0 1
    outer loop
      vertex 2.1 0 20
      vertex 2.0885 -0.21951 20
      vertex 10.4425 -1.09755 20
    endloop
  endfacet
  facet normal 0 0 1
    outer loop
      vertex 10.5 0 20
      vertex 2.1 0 20
      vertex 10.4425 -1.09755 20
    endloop
  endfacet
  facet normal 0 0 1
    outer loop
      vertex 2.05411 -0.436615 20
      vertex 1.99722 -0.648936 20
      vertex 10.4425 -1.09755 20
    endloop
  endfacet
  facet normal 0 0 1
    outer loop
      vertex -1.99722 0.648936 20
      vertex -1.91844 0.854147 20
      vertex -10.4425 1.09755 20
    endloop
  endfacet
  facet normal 0 0 1
    outer loop
      vertex 1.91844 -0.854147 20
      vertex 1.81865 -1.05 20
      vertex 10.2706 -2.18307 20
    endloop
  endfacet
  facet normal 0 0 1
    outer loop
      vertex 10.4425 -1.09755 20
      vertex 1.99722 -0.648936 20
      vertex 10.2706 -2.18307 20
    endloop
  endfacet
  facet normal 0 0 1
    outer loop
      vertex 1.99722 -0.648936 20
      vertex 1.91844 -0.854147 20
      vertex 10.2706 -2.18307 20
    endloop
  endfacet
  facet normal 0 0 1
    outer loop
      vertex 10.2706 -2.18307 20
      vertex 1.81865 -1.05 20
      vertex 9.98609 -3.24468 20
    endloop
  endfacet
  facet normal 0 0 1
    outer loop
      vertex 1.81865 -1.05 20
      vertex 1.69894 -1.23435 20
      vertex 9.98609 -3.24468 20
    endloop
  endfacet
  facet normal 0 0 1
    outer loop
      vertex 1.69894 -1.23435 20
      vertex 1.5606 -1.40517 20
      vertex 9.98609 -3.24468 20
    endloop
  endfacet
  facet normal 0 0 1
    outer loop
      vertex 9.98609 -3.24468 20
      vertex 1.40517 -1.5606 20
      vertex 9.59223 -4.27074 20
    endloop
  endfacet
  facet normal 0 0 1
    outer loop
      vertex -1.69894 -1.23435 20
      vertex -1.81865 -1.05 20
      vertex -10.4425 1.09755 20
    endloop
  endfacet
  facet normal 0 0 1
    outer loop
      vertex 1.40517 -1.5606 20
      vertex 1.23435 -1.69894 20
      vertex 9.59223 -4.27074 20
    endloop
  endfacet
  facet normal 0 0 1
    outer loop
      vertex 1.23435 -1.69894 20
      vertex 1.05 -1.81865 20
      vertex 9.59223 -4.27074 20
    endloop
  endfacet
  facet normal 0 0 1
    outer loop
      vertex 1.05 -1.81865 20
      vertex 0.854147 -1.91844 20
      vertex 9.59223 -4.27074 20
    endloop
  endfacet
  facet normal 0 0 1
    outer loop
      vertex 9.59223 -4.27074 20
      vertex 0.648936 -1.99722 20
      vertex 9.09327 -5.25 20
    endloop
  endfacet
  facet normal 0 0 1
    outer loop
      vertex 0.648936 -1.99722 20
      vertex 0.436615 -2.05411 20
      vertex 9.09327 -5.25 20
    endloop
  endfacet
  facet normal 0 0 1
    outer loop
      vertex 0.436615 -2.05411 20
      vertex 0.21951 -2.0885 20
      vertex 9.09327 -5.25 20
    endloop
  endfacet
  facet normal 0 0 1
    outer loop
      vertex 0.21951 -2.0885 20
      vertex 0 -2.1 20
      vertex 9.09327 -5.25 20
    endloop
  endfacet
  facet normal 0 0 1
    outer loop
      vertex 0 -2.1 20
      vertex -0.21951 -2.0885 20
      vertex 9.09327 -5.25 20
    endloop
  endfacet
  facet normal 0 0 1
    outer loop
      vertex -0.21951 -2.0885 20
      vertex -0.436615 -2.05411 20
      vertex 9.09327 -5.25 20
    endloop
  endfacet
  facet normal 0 0 1
    outer loop
      vertex -0.436615 -2.05411 20
      vertex -0.648936 -1.99722 20
      vertex 9.09327 -5.25 20
    endloop
  endfacet
  facet normal 0 0 1
    outer loop
      vertex -0.854147 -1.91844 20
      vertex -1.05 -1.81865 20
      vertex -10.4425 1.09755 20
    endloop
  endfacet
  facet normal 0 0 1
    outer loop
      vertex -1.05 -1.81865 20
      vertex -1.23435 -1.69894 20
      vertex -10.4425 1.09755 20
    endloop
  endfacet
  facet normal 0 0 1
    outer loop
      vertex -1.23435 -1.69894 20
      vertex -1.40517 -1.5606 20
      vertex -10.4425 1.09755 20
    endloop
  endfacet
  facet normal 0 0 1
    outer loop
      vertex -1.40517 -1.5606 20
      vertex -1.5606 -1.40517 20
      vertex -10.4425 1.09755 20
    endloop
  endfacet
  facet normal 0 0 1
    outer loop
      vertex -1.91844 -0.854147 20
      vertex -1.99722 -0.648936 20
      vertex -10.4425 1.09755 20
    endloop
  endfacet
  facet normal 0 0 1
    outer loop
      vertex -1.81865 -1.05 20
      vertex -1.91844 -0.854147 20
      vertex -10.4425 1.09755 20
    endloop
  endfacet
  facet normal 0 0 1
    outer loop
      vertex -2.1 0 20
      vertex -2.0885 0.21951 20
      vertex -10.4425 1.09755 20
    endloop
  endfacet
  facet normal 0 0 1
    outer loop
      vertex -1.99722 -0.648936 20
      vertex -2.05411 -0.436615 20
      vertex -10.4425 1.09755 20
    endloop
  endfacet
  facet normal 0 0 1
    outer loop
      vertex -2.05411 -0.436615 20
      vertex -2.0885 -0.21951 20
      vertex -10.4425 1.09755 20
    endloop
  endfacet
endsolid OpenSCAD_Model
