<?xml version="1.0" encoding="UTF-8" standalone="no"?>
<!-- Created with Inkscape (http://www.inkscape.org/) -->

<svg
   xmlns:dc="http://purl.org/dc/elements/1.1/"
   xmlns:cc="http://creativecommons.org/ns#"
   xmlns:rdf="http://www.w3.org/1999/02/22-rdf-syntax-ns#"
   xmlns:svg="http://www.w3.org/2000/svg"
   xmlns="http://www.w3.org/2000/svg"
   xmlns:sodipodi="http://sodipodi.sourceforge.net/DTD/sodipodi-0.dtd"
   xmlns:inkscape="http://www.inkscape.org/namespaces/inkscape"
   width="210mm"
   height="297mm"
   viewBox="0 0 210 297"
   version="1.1"
   id="svg4581"
   inkscape:version="0.92.3 (2405546, 2018-03-11)"
   sodipodi:docname="aufbau.svg">
  <defs
     id="defs4575" />
  <sodipodi:namedview
     id="base"
     pagecolor="#ffffff"
     bordercolor="#666666"
     borderopacity="1.0"
     inkscape:pageopacity="0.0"
     inkscape:pageshadow="2"
     inkscape:zoom="0.34754096"
     inkscape:cx="1509.1968"
     inkscape:cy="-1091.9313"
     inkscape:document-units="mm"
     inkscape:current-layer="layer1"
     showgrid="false"
     inkscape:window-width="1366"
     inkscape:window-height="715"
     inkscape:window-x="-8"
     inkscape:window-y="-8"
     inkscape:window-maximized="1"
     inkscape:measure-start="1454.74,-1147.51"
     inkscape:measure-end="1511.71,-1145.48" />
  <metadata
     id="metadata4578">
    <rdf:RDF>
      <cc:Work
         rdf:about="">
        <dc:format>image/svg+xml</dc:format>
        <dc:type
           rdf:resource="http://purl.org/dc/dcmitype/StillImage" />
        <dc:title />
      </cc:Work>
    </rdf:RDF>
  </metadata>
  <g
     inkscape:label="Ebene 1"
     inkscape:groupmode="layer"
     id="layer1">
    <path
       style="fill:none;stroke:#000000;stroke-width:0.37197757;stroke-miterlimit:4;stroke-dasharray:none"
       d="M 0.18554688 1122.7051 L 0.18554688 2898.7109 L 1511.625 2898.7109 L 1511.625 1122.7051 L 1470.0762 1122.7051 L 1470.0762 1306.9434 L 1455.2793 1306.9434 L 1455.2793 1122.7051 L 0.18554688 1122.7051 z "
       transform="scale(0.26458333)"
       id="rect4583" />
    <circle
       style="fill:none;stroke:#000000;stroke-width:0.35415435;stroke-miterlimit:4;stroke-dasharray:none"
       id="path5150"
       cx="17.5"
       cy="311.49994"
       r="1.3229228" />
    <circle
       style="fill:none;stroke:#000000;stroke-width:0.35415435;stroke-miterlimit:4;stroke-dasharray:none"
       id="path5150-6"
       cx="17.5"
       cy="379.49994"
       r="1.3229228" />
    <circle
       style="fill:none;stroke:#000000;stroke-width:0.35415435;stroke-miterlimit:4;stroke-dasharray:none"
       id="path5150-1"
       cx="85.5"
       cy="311.49994"
       r="1.3229228" />
    <circle
       style="fill:none;stroke:#000000;stroke-width:0.35415435;stroke-miterlimit:4;stroke-dasharray:none"
       id="path5150-6-6"
       cx="85.5"
       cy="379.49994"
       r="1.3229228" />
    <ellipse
       style="fill:none;stroke:#000000;stroke-width:0.21893723;stroke-miterlimit:4;stroke-dasharray:none"
       id="path5768"
       cx="51.000004"
       cy="344.99994"
       rx="34.890533"
       ry="34.89053" />
    <circle
       style="fill:none;stroke:#000000;stroke-width:0.35415435;stroke-miterlimit:4;stroke-dasharray:none"
       id="path5150-7"
       cx="102.5"
       cy="311.49994"
       r="1.3229228" />
    <circle
       style="fill:none;stroke:#000000;stroke-width:0.35415435;stroke-miterlimit:4;stroke-dasharray:none"
       id="path5150-6-10"
       cx="102.5"
       cy="379.49994"
       r="1.3229228" />
    <circle
       style="fill:none;stroke:#000000;stroke-width:0.35415435;stroke-miterlimit:4;stroke-dasharray:none"
       id="path5150-1-9"
       cx="170.5"
       cy="311.49994"
       r="1.3229228" />
    <circle
       style="fill:none;stroke:#000000;stroke-width:0.35415435;stroke-miterlimit:4;stroke-dasharray:none"
       id="path5150-6-6-0"
       cx="170.5"
       cy="379.49994"
       r="1.3229228" />
    <ellipse
       style="fill:none;stroke:#000000;stroke-width:0.21893723;stroke-miterlimit:4;stroke-dasharray:none"
       id="path5768-8"
       cx="136"
       cy="344.99994"
       rx="34.890533"
       ry="34.89053" />
    <circle
       style="fill:none;stroke:#000000;stroke-width:0.35415435;stroke-miterlimit:4;stroke-dasharray:none"
       id="path5150-3"
       cx="187.5"
       cy="311.49994"
       r="1.3229228" />
    <circle
       style="fill:none;stroke:#000000;stroke-width:0.35415435;stroke-miterlimit:4;stroke-dasharray:none"
       id="path5150-6-5"
       cx="187.5"
       cy="379.49994"
       r="1.3229228" />
    <circle
       style="fill:none;stroke:#000000;stroke-width:0.35415435;stroke-miterlimit:4;stroke-dasharray:none"
       id="path5150-1-0"
       cx="255.5"
       cy="311.49994"
       r="1.3229228" />
    <circle
       style="fill:none;stroke:#000000;stroke-width:0.35415435;stroke-miterlimit:4;stroke-dasharray:none"
       id="path5150-6-6-8"
       cx="255.5"
       cy="379.49994"
       r="1.3229228" />
    <ellipse
       style="fill:none;stroke:#000000;stroke-width:0.21893723;stroke-miterlimit:4;stroke-dasharray:none"
       id="path5768-4"
       cx="221"
       cy="344.99994"
       rx="34.890533"
       ry="34.89053" />
    <circle
       style="fill:none;stroke:#000000;stroke-width:0.35415435;stroke-miterlimit:4;stroke-dasharray:none"
       id="path5150-4"
       cx="272.5"
       cy="311.49994"
       r="1.3229228" />
    <circle
       style="fill:none;stroke:#000000;stroke-width:0.35415435;stroke-miterlimit:4;stroke-dasharray:none"
       id="path5150-6-64"
       cx="272.5"
       cy="379.49994"
       r="1.3229228" />
    <circle
       style="fill:none;stroke:#000000;stroke-width:0.35415435;stroke-miterlimit:4;stroke-dasharray:none"
       id="path5150-1-3"
       cx="340.5"
       cy="311.49994"
       r="1.3229228" />
    <circle
       style="fill:none;stroke:#000000;stroke-width:0.35415435;stroke-miterlimit:4;stroke-dasharray:none"
       id="path5150-6-6-7"
       cx="340.5"
       cy="379.49994"
       r="1.3229228" />
    <ellipse
       style="fill:none;stroke:#000000;stroke-width:0.21893723;stroke-miterlimit:4;stroke-dasharray:none"
       id="path5768-2"
       cx="306"
       cy="344.99994"
       rx="34.890533"
       ry="34.89053" />
    <path
       style="fill:none;fill-opacity:0;stroke:#000000;stroke-width:0.14577948;stroke-miterlimit:4;stroke-dasharray:none"
       d="m 39.549964,395.07291 a 4.8921697,3.6724789 0 0 0 -4.892327,3.67262 4.8921697,3.6724789 0 0 0 10e-4,0.0198 h -0.0016 v 37.49229 h 5.17e-4 a 4.8921697,3.6724789 0 0 0 4.892327,3.66949 4.8921697,3.6724789 0 0 0 4.892327,-3.66949 h 0.06888 v -37.49229 h -0.07044 a 4.8921697,3.6724789 0 0 0 0.0016,-0.0198 4.8921697,3.6724789 0 0 0 -4.892327,-3.67262 z"
       id="rect3848"
       inkscape:connector-curvature="0" />
    <path
       style="fill:none;fill-opacity:0;stroke:#000000;stroke-width:0.14577948;stroke-miterlimit:4;stroke-dasharray:none"
       d="m 124.96622,395.07291 a 4.8921696,3.6724788 0 0 0 -4.89233,3.67262 4.8921696,3.6724788 0 0 0 10e-4,0.0198 h -0.002 v 37.49229 h 5.2e-4 a 4.8921696,3.6724788 0 0 0 4.89232,3.66949 4.8921696,3.6724788 0 0 0 4.89233,-3.66949 h 0.0689 v -37.49229 h -0.0704 a 4.8921696,3.6724788 0 0 0 0.002,-0.0198 4.8921696,3.6724788 0 0 0 -4.89231,-3.67262 z"
       id="rect3848-3"
       inkscape:connector-curvature="0" />
    <path
       style="fill:none;fill-opacity:0;stroke:#000000;stroke-width:0.14577948;stroke-miterlimit:4;stroke-dasharray:none"
       d="m 209.96622,395.07291 a 4.8921696,3.6724788 0 0 0 -4.89233,3.67262 4.8921696,3.6724788 0 0 0 0.001,0.0198 h -0.002 v 37.49229 h 5.2e-4 a 4.8921696,3.6724788 0 0 0 4.89232,3.66949 4.8921696,3.6724788 0 0 0 4.89233,-3.66949 h 0.0689 v -37.49229 h -0.0704 a 4.8921696,3.6724788 0 0 0 0.002,-0.0198 4.8921696,3.6724788 0 0 0 -4.89232,-3.67262 z"
       id="rect3848-3-8"
       inkscape:connector-curvature="0" />
    <path
       style="fill:none;fill-opacity:0;stroke:#000000;stroke-width:0.14577948;stroke-miterlimit:4;stroke-dasharray:none"
       d="m 294.96622,395.07291 a 4.8921696,3.6724788 0 0 0 -4.89233,3.67262 4.8921696,3.6724788 0 0 0 10e-4,0.0198 h -0.002 v 37.49229 h 5.2e-4 a 4.8921696,3.6724788 0 0 0 4.89232,3.66949 4.8921696,3.6724788 0 0 0 4.89233,-3.66949 h 0.0689 v -37.49229 h -0.0704 a 4.8921696,3.6724788 0 0 0 0.002,-0.0198 4.8921696,3.6724788 0 0 0 -4.89232,-3.67262 z"
       id="rect3848-3-4"
       inkscape:connector-curvature="0" />
    <circle
       id="path32"
       cx="392.52753"
       cy="617.5"
       style="stroke-width:0.0076252"
       r="2" />
    <circle
       id="path32-5"
       cx="440.03207"
       cy="295"
       style="stroke-width:0.0076252"
       r="2" />
    <circle
       id="path32-9"
       cx="392.83139"
       cy="745"
       style="stroke-width:0.0076252"
       r="2" />
    <circle
       id="path32-4"
       cx="392.5"
       cy="490"
       style="stroke-width:0.0076252"
       r="2" />
  </g>
</svg>
