<?xml version="1.0" encoding="UTF-8" standalone="no"?>
<!-- Created with Inkscape (http://www.inkscape.org/) -->

<svg
   xmlns:dc="http://purl.org/dc/elements/1.1/"
   xmlns:cc="http://creativecommons.org/ns#"
   xmlns:rdf="http://www.w3.org/1999/02/22-rdf-syntax-ns#"
   xmlns:svg="http://www.w3.org/2000/svg"
   xmlns="http://www.w3.org/2000/svg"
   xmlns:sodipodi="http://sodipodi.sourceforge.net/DTD/sodipodi-0.dtd"
   xmlns:inkscape="http://www.inkscape.org/namespaces/inkscape"
   width="600mm"
   height="420mm"
   viewBox="0 0 600 420"
   version="1.1"
   id="svg4581"
   inkscape:version="0.92.3 (2405546, 2018-03-11)"
   sodipodi:docname="aufbau2.svg">
  <defs
     id="defs4575" />
  <sodipodi:namedview
     id="base"
     pagecolor="#ffffff"
     bordercolor="#666666"
     borderopacity="1.0"
     inkscape:pageopacity="0.0"
     inkscape:pageshadow="2"
     inkscape:zoom="0.34754096"
     inkscape:cx="765.28772"
     inkscape:cy="846.38275"
     inkscape:document-units="mm"
     inkscape:current-layer="layer1"
     showgrid="false"
     inkscape:window-width="1366"
     inkscape:window-height="715"
     inkscape:window-x="-8"
     inkscape:window-y="-8"
     inkscape:window-maximized="1"
     inkscape:measure-start="-1770.1,-1542.23"
     inkscape:measure-end="817.909,-2221.78" />
  <metadata
     id="metadata4578">
    <rdf:RDF>
      <cc:Work
         rdf:about="">
        <dc:format>image/svg+xml</dc:format>
        <dc:type
           rdf:resource="http://purl.org/dc/dcmitype/StillImage" />
        <dc:title></dc:title>
      </cc:Work>
    </rdf:RDF>
  </metadata>
  <g
     inkscape:label="Ebene 1"
     inkscape:groupmode="layer"
     id="layer1"
     transform="translate(0,123)">
    <path
       style="fill:none;stroke:#000000;stroke-width:0.02;stroke-miterlimit:4;stroke-dasharray:none"
       d="m 3.478944,292.52468 359.950936,0.0245 v -7.97545 h 109.95059 v -402 H 3.478944 v 21.042344 h 48.746383 v 3.915013 H 3.478944 Z"
       id="rect4583"
       inkscape:connector-curvature="0"
       sodipodi:nodetypes="ccccccccccc" />
    <circle
       style="fill:none;stroke:#000000;stroke-width:0.02;stroke-miterlimit:4;stroke-dasharray:none"
       id="path5150"
       cx="-275.07376"
       cy="17.929825"
       r="1.3229228"
       transform="rotate(-90)" />
    <circle
       style="fill:none;stroke:#000000;stroke-width:0.02;stroke-miterlimit:4;stroke-dasharray:none"
       id="path5150-6"
       cx="-275.07376"
       cy="85.929825"
       r="1.3229228"
       transform="rotate(-90)" />
    <circle
       style="fill:none;stroke:#000000;stroke-width:0.02;stroke-miterlimit:4;stroke-dasharray:none"
       id="path5150-1"
       cx="-207.07376"
       cy="17.929825"
       r="1.3229228"
       transform="rotate(-90)" />
    <circle
       style="fill:none;stroke:#000000;stroke-width:0.02;stroke-miterlimit:4;stroke-dasharray:none"
       id="path5150-6-6"
       cx="-207.07376"
       cy="85.929825"
       r="1.3229228"
       transform="rotate(-90)" />
    <ellipse
       style="fill:none;stroke:#000000;stroke-width:0.02;stroke-miterlimit:4;stroke-dasharray:none"
       id="path5768"
       cx="-241.57376"
       cy="51.429825"
       rx="34.890533"
       ry="34.89053"
       transform="rotate(-90)" />
    <circle
       style="fill:none;stroke:#000000;stroke-width:0.02;stroke-miterlimit:4;stroke-dasharray:none"
       id="path5150-7"
       cx="-190.07376"
       cy="17.929825"
       r="1.3229228"
       transform="rotate(-90)" />
    <circle
       style="fill:none;stroke:#000000;stroke-width:0.02;stroke-miterlimit:4;stroke-dasharray:none"
       id="path5150-6-10"
       cx="-190.07376"
       cy="85.929825"
       r="1.3229228"
       transform="rotate(-90)" />
    <circle
       style="fill:none;stroke:#000000;stroke-width:0.02;stroke-miterlimit:4;stroke-dasharray:none"
       id="path5150-1-9"
       cx="-122.07377"
       cy="17.929825"
       r="1.3229228"
       transform="rotate(-90)" />
    <circle
       style="fill:none;stroke:#000000;stroke-width:0.02;stroke-miterlimit:4;stroke-dasharray:none"
       id="path5150-6-6-0"
       cx="-122.07377"
       cy="85.929825"
       r="1.3229228"
       transform="rotate(-90)" />
    <ellipse
       style="fill:none;stroke:#000000;stroke-width:0.02;stroke-miterlimit:4;stroke-dasharray:none"
       id="path5768-8"
       cx="-156.57376"
       cy="51.429825"
       rx="34.890533"
       ry="34.89053"
       transform="rotate(-90)" />
    <circle
       style="fill:none;stroke:#000000;stroke-width:0.02;stroke-miterlimit:4;stroke-dasharray:none"
       id="path5150-3"
       cx="-105.07377"
       cy="17.929825"
       r="1.3229228"
       transform="rotate(-90)" />
    <circle
       style="fill:none;stroke:#000000;stroke-width:0.02;stroke-miterlimit:4;stroke-dasharray:none"
       id="path5150-6-5"
       cx="-105.07377"
       cy="85.929825"
       r="1.3229228"
       transform="rotate(-90)" />
    <circle
       style="fill:none;stroke:#000000;stroke-width:0.02;stroke-miterlimit:4;stroke-dasharray:none"
       id="path5150-1-0"
       cx="-37.073765"
       cy="17.929825"
       r="1.3229228"
       transform="rotate(-90)" />
    <circle
       style="fill:none;stroke:#000000;stroke-width:0.02;stroke-miterlimit:4;stroke-dasharray:none"
       id="path5150-6-6-8"
       cx="-37.073765"
       cy="85.929825"
       r="1.3229228"
       transform="rotate(-90)" />
    <ellipse
       style="fill:none;stroke:#000000;stroke-width:0.02;stroke-miterlimit:4;stroke-dasharray:none"
       id="path5768-4"
       cx="-71.573769"
       cy="51.429825"
       rx="34.890533"
       ry="34.89053"
       transform="rotate(-90)" />
    <circle
       style="fill:none;stroke:#000000;stroke-width:0.02;stroke-miterlimit:4;stroke-dasharray:none"
       id="path5150-4"
       cx="-20.073765"
       cy="17.929825"
       r="1.3229228"
       transform="rotate(-90)" />
    <circle
       style="fill:none;stroke:#000000;stroke-width:0.02;stroke-miterlimit:4;stroke-dasharray:none"
       id="path5150-6-64"
       cx="-20.073765"
       cy="85.929825"
       r="1.3229228"
       transform="rotate(-90)" />
    <circle
       style="fill:none;stroke:#000000;stroke-width:0.02;stroke-miterlimit:4;stroke-dasharray:none"
       id="path5150-1-3"
       cx="47.926235"
       cy="17.929825"
       r="1.3229228"
       transform="rotate(-90)" />
    <circle
       style="fill:none;stroke:#000000;stroke-width:0.02;stroke-miterlimit:4;stroke-dasharray:none"
       id="path5150-6-6-7"
       cx="47.926235"
       cy="85.929825"
       r="1.3229228"
       transform="rotate(-90)" />
    <ellipse
       style="fill:none;stroke:#000000;stroke-width:0.02;stroke-miterlimit:4;stroke-dasharray:none"
       id="path5768-2"
       cx="13.426234"
       cy="51.429825"
       rx="34.890533"
       ry="34.89053"
       transform="rotate(-90)" />
    <path
       style="fill:none;fill-opacity:0;stroke:#000000;stroke-width:0.02;stroke-miterlimit:4;stroke-dasharray:none"
       d="m 101.5028,253.0238 a 3.6724789,4.8921697 0 0 0 3.67262,4.89233 3.6724789,4.8921697 0 0 0 0.0198,-0.001 v 0.002 h 37.49229 v -5.2e-4 a 3.6724789,4.8921697 0 0 0 3.66949,-4.89233 3.6724789,4.8921697 0 0 0 -3.66949,-4.89232 v -0.0689 h -37.49229 v 0.0704 a 3.6724789,4.8921697 0 0 0 -0.0198,-0.002 3.6724789,4.8921697 0 0 0 -3.67262,4.89232 z"
       id="rect3848"
       inkscape:connector-curvature="0" />
    <path
       style="fill:none;fill-opacity:0;stroke:#000000;stroke-width:0.02;stroke-miterlimit:4;stroke-dasharray:none"
       d="m 101.5028,167.60755 a 3.6724788,4.8921696 0 0 0 3.67262,4.89233 3.6724788,4.8921696 0 0 0 0.0198,-10e-4 v 0.002 h 37.49229 v -5.2e-4 a 3.6724788,4.8921696 0 0 0 3.66949,-4.89232 3.6724788,4.8921696 0 0 0 -3.66949,-4.89233 v -0.0689 h -37.49229 v 0.0704 a 3.6724788,4.8921696 0 0 0 -0.0198,-0.002 3.6724788,4.8921696 0 0 0 -3.67262,4.89231 z"
       id="rect3848-3"
       inkscape:connector-curvature="0" />
    <path
       style="fill:none;fill-opacity:0;stroke:#000000;stroke-width:0.02;stroke-miterlimit:4;stroke-dasharray:none"
       d="m 101.5028,82.607546 a 3.6724788,4.8921696 0 0 0 3.67262,4.89233 3.6724788,4.8921696 0 0 0 0.0198,-0.001 v 0.002 h 37.49229 v -5.2e-4 a 3.6724788,4.8921696 0 0 0 3.66949,-4.89232 3.6724788,4.8921696 0 0 0 -3.66949,-4.89233 v -0.0689 h -37.49229 v 0.0704 a 3.6724788,4.8921696 0 0 0 -0.0198,-0.002 3.6724788,4.8921696 0 0 0 -3.67262,4.89232 z"
       id="rect3848-3-8"
       inkscape:connector-curvature="0" />
    <path
       style="fill:none;fill-opacity:0;stroke:#000000;stroke-width:0.02;stroke-miterlimit:4;stroke-dasharray:none"
       d="m 101.5028,-2.3924544 a 3.6724788,4.8921696 0 0 0 3.67262,4.89233 3.6724788,4.8921696 0 0 0 0.0198,-0.001 v 0.002 h 37.49229 v -5.2e-4 a 3.6724788,4.8921696 0 0 0 3.66949,-4.89232 3.6724788,4.8921696 0 0 0 -3.66949,-4.89233 v -0.0689 h -37.49229 v 0.0704 a 3.6724788,4.8921696 0 0 0 -0.0198,-0.002 3.6724788,4.8921696 0 0 0 -3.67262,4.89232 z"
       id="rect3848-3-4"
       inkscape:connector-curvature="0" />
    <circle
       id="path32"
       cx="99.953758"
       cy="323.92987"
       style="stroke-width:0.02;stroke-miterlimit:4;stroke-dasharray:none;stroke:#000000;fill:none"
       r="2"
       transform="rotate(-90)" />
    <circle
       id="path32-9"
       cx="100.25762"
       cy="451.42987"
       style="stroke-width:0.02;stroke-miterlimit:4;stroke-dasharray:none;stroke:#000000;fill:none"
       r="2"
       transform="rotate(-90)" />
    <circle
       id="path32-4"
       cx="99.926231"
       cy="196.42989"
       style="stroke-width:0.02;stroke-miterlimit:4;stroke-dasharray:none;stroke:#000000;fill:none"
       r="2"
       transform="rotate(-90)" />
    <rect
       style="fill:none;stroke:#000000;stroke-width:0.02;stroke-miterlimit:4;stroke-dasharray:none"
       id="rect38"
       width="109.99072"
       height="109.99072"
       x="482.02765"
       y="175.17354"
       transform="rotate(-0.07015)" />
    <rect
       style="fill:none;stroke:#000000;stroke-width:0.02;stroke-miterlimit:4;stroke-dasharray:none"
       id="rect38-5"
       width="109.99073"
       height="109.99073"
       x="480.79291"
       y="52.21846"
       transform="rotate(-0.07015)" />
  </g>
</svg>
