<?xml version="1.0" encoding="UTF-8" standalone="no"?>
<!-- Created with Inkscape (http://www.inkscape.org/) -->

<svg
   xmlns:dc="http://purl.org/dc/elements/1.1/"
   xmlns:cc="http://creativecommons.org/ns#"
   xmlns:rdf="http://www.w3.org/1999/02/22-rdf-syntax-ns#"
   xmlns:svg="http://www.w3.org/2000/svg"
   xmlns="http://www.w3.org/2000/svg"
   xmlns:sodipodi="http://sodipodi.sourceforge.net/DTD/sodipodi-0.dtd"
   xmlns:inkscape="http://www.inkscape.org/namespaces/inkscape"
   width="210mm"
   height="297mm"
   viewBox="0 0 210 297"
   version="1.1"
   id="svg4881"
   inkscape:version="0.92.3 (2405546, 2018-03-11)"
   sodipodi:docname="Auslass2.svg">
  <defs
     id="defs4875" />
  <sodipodi:namedview
     id="base"
     pagecolor="#ffffff"
     bordercolor="#666666"
     borderopacity="1.0"
     inkscape:pageopacity="0.0"
     inkscape:pageshadow="2"
     inkscape:zoom="0.48818743"
     inkscape:cx="745.0773"
     inkscape:cy="561.25984"
     inkscape:document-units="mm"
     inkscape:current-layer="layer1"
     showgrid="false"
     inkscape:window-width="1366"
     inkscape:window-height="715"
     inkscape:window-x="-8"
     inkscape:window-y="-8"
     inkscape:window-maximized="1" />
  <metadata
     id="metadata4878">
    <rdf:RDF>
      <cc:Work
         rdf:about="">
        <dc:format>image/svg+xml</dc:format>
        <dc:type
           rdf:resource="http://purl.org/dc/dcmitype/StillImage" />
        <dc:title></dc:title>
      </cc:Work>
    </rdf:RDF>
  </metadata>
  <g
     inkscape:label="Ebene 1"
     inkscape:groupmode="layer"
     id="layer1">
    <g
       id="g5497"
       transform="rotate(89.982561,142.1019,149.05124)"
       style="stroke-width:0.02;stroke-miterlimit:4;stroke-dasharray:none">
      <g
         id="g5474"
         style="stroke-width:0.02;stroke-miterlimit:4;stroke-dasharray:none" />
      <path
         id="path5428-73"
         style="fill:none;fill-opacity:0;stroke:#000000;stroke-width:0.02;stroke-miterlimit:4;stroke-dasharray:none;stroke-opacity:1"
         d="m 109.96738,204.41797 c 0,2.18983 -1.77521,3.96503 -3.96504,3.96503 -2.18982,0 -3.96503,-1.77521 -3.96503,-3.96503 0,-2.18982 1.77521,-3.96503 3.96503,-3.96503 2.18983,0 3.96504,1.7752 3.96504,3.96503 z m -5.80339,-7.97965 c 0,2.18983 -1.7752,3.96504 -3.96503,3.96504 -2.18983,0 -3.965038,-1.77521 -3.965034,-3.96504 2e-6,-2.18983 1.775208,-3.96503 3.965034,-3.96503 2.18982,0 3.96503,1.77521 3.96503,3.96503 z m 8.2517,-0.99746 c 0,2.18983 -1.77521,3.96503 -3.96504,3.96503 -2.18982,0 -3.96503,-1.77521 -3.96503,-3.96503 0,-2.18983 1.7752,-3.96504 3.96503,-3.96504 2.18983,0 3.96504,1.77521 3.96504,3.96504 z m -12.15084,8.52374 c 0,2.18983 -1.77521,3.96503 -3.965038,3.96503 -2.189826,0 -3.965031,-1.7752 -3.965033,-3.96503 2e-6,-2.18983 1.775207,-3.96503 3.965033,-3.96503 2.189828,0 3.965038,1.7752 3.965038,3.96503 z m 3.08304,7.97963 c 0,2.18983 -1.77521,3.96503 -3.965032,3.96503 -2.189826,0 -3.965031,-1.7752 -3.965033,-3.96503 2e-6,-2.18983 1.775207,-3.96503 3.965033,-3.96503 2.189822,0 3.965032,1.7752 3.965032,3.96503 z m 8.43305,1.54153 c 0,2.18983 -1.7752,3.96504 -3.96503,3.96504 -2.18983,0 -3.96503,-1.77521 -3.96503,-3.96504 0,-2.18982 1.77521,-3.96503 3.96503,-3.96503 2.18982,0 3.96503,1.77521 3.96503,3.96503 z m 7.22399,-4.62455 c 0,2.18982 -1.77521,3.96503 -3.96503,3.96503 -2.18982,0 -3.96503,-1.77521 -3.96503,-3.96503 0,-2.18983 1.7752,-3.96504 3.96503,-3.96504 2.18983,0 3.96503,1.77521 3.96503,3.96504 z m 0.47297,-8.49341 c 0,2.18982 -1.77521,3.96503 -3.96503,3.96503 -2.18982,0 -3.96503,-1.77521 -3.96503,-3.96503 0,-2.18982 1.77521,-3.96503 3.96503,-3.96503 2.18982,0 3.96503,1.77521 3.96503,3.96503 z M -1.5251878,123.2883 212.18871,122.4746 v 163.40888 l -213.6297096,0.32061 z"
         inkscape:connector-curvature="0"
         sodipodi:nodetypes="cscscssssssssssccccccscscscscsscscscccccccccc" />
    </g>
  </g>
</svg>
