<?xml version="1.0" encoding="UTF-8" standalone="no"?>
<!-- Created with Inkscape (http://www.inkscape.org/) -->

<svg
   xmlns:dc="http://purl.org/dc/elements/1.1/"
   xmlns:cc="http://creativecommons.org/ns#"
   xmlns:rdf="http://www.w3.org/1999/02/22-rdf-syntax-ns#"
   xmlns:svg="http://www.w3.org/2000/svg"
   xmlns="http://www.w3.org/2000/svg"
   xmlns:sodipodi="http://sodipodi.sourceforge.net/DTD/sodipodi-0.dtd"
   xmlns:inkscape="http://www.inkscape.org/namespaces/inkscape"
   width="600mm"
   height="400mm"
   viewBox="0 0 600 400"
   version="1.1"
   id="svg821"
   inkscape:version="0.92.3 (unknown)"
   sodipodi:docname="Frontplatte.svg">
  <defs
     id="defs815" />
  <sodipodi:namedview
     id="base"
     pagecolor="#ffffff"
     bordercolor="#666666"
     borderopacity="1.0"
     inkscape:pageopacity="0.0"
     inkscape:pageshadow="2"
     inkscape:zoom="0.36314062"
     inkscape:cx="1133.8583"
     inkscape:cy="755.90551"
     inkscape:document-units="mm"
     inkscape:current-layer="layer1"
     showgrid="false"
     inkscape:measure-start="2.21045,565.874"
     inkscape:measure-end="21.4729,565.874"
     inkscape:window-width="1366"
     inkscape:window-height="715"
     inkscape:window-x="-8"
     inkscape:window-y="-8"
     inkscape:window-maximized="1" />
  <metadata
     id="metadata818">
    <rdf:RDF>
      <cc:Work
         rdf:about="">
        <dc:format>image/svg+xml</dc:format>
        <dc:type
           rdf:resource="http://purl.org/dc/dcmitype/StillImage" />
        <dc:title></dc:title>
      </cc:Work>
    </rdf:RDF>
  </metadata>
  <g
     inkscape:label="Ebene 1"
     inkscape:groupmode="layer"
     id="layer1"
     transform="translate(0,103)">
    <rect
       id="rect823"
       width="219.46053"
       height="294.46054"
       x="-119.56832"
       y="4.586813"
       style="fill:none;stroke:#000000;stroke-width:0.02;stroke-miterlimit:4;stroke-dasharray:none"
       transform="rotate(-90)" />
    <path
       transform="rotate(-90)"
       style="fill:none;stroke-width:0.02;stroke-miterlimit:4;stroke-dasharray:none"
       d="m -110.08342,149.8186 a 2,2 0 0 1 -2,2 2,2 0 0 1 -2,-2 2,2 0 0 1 2,-2 2,2 0 0 1 2,2 z"
       id="path32" />
    <path
       style="fill:none;stroke-width:0.02;stroke-miterlimit:4;stroke-dasharray:none;stroke:#000000"
       d="m -109.77956,277.3186 a 2,2 0 0 1 -2,2 2,2 0 0 1 -2,-2 2,2 0 0 1 2,-2 2,2 0 0 1 2,2 z"
       transform="rotate(-90)"
       id="path32-9" />
    <path
       transform="rotate(-90)"
       style="fill:none;stroke-width:0.02;stroke-miterlimit:4;stroke-dasharray:none"
       d="m -110.11095,22.318596 a 2,2 0 0 1 -2,2 2,2 0 0 1 -2,-2 2,2 0 0 1 2,-2 2,2 0 0 1 2,2 z"
       id="path32-4" />
    <circle
       id="path32-7"
       cx="92.489471"
       cy="149.81711"
       style="fill:none;stroke-width:0.02;stroke-miterlimit:4;stroke-dasharray:none"
       r="2"
       transform="rotate(-90)" />
    <circle
       id="path32-9-0"
       cx="92.793335"
       cy="277.31711"
       style="fill:none;stroke-width:0.02;stroke-miterlimit:4;stroke-dasharray:none"
       r="2"
       transform="rotate(-90)" />
    <circle
       id="path32-4-7"
       cx="92.461945"
       cy="22.317099"
       style="fill:none;stroke-width:0.02;stroke-miterlimit:4;stroke-dasharray:none"
       r="2"
       transform="rotate(-90)" />
  </g>
</svg>
