<?xml version="1.0" encoding="UTF-8" standalone="no"?>
<!-- Created with Inkscape (http://www.inkscape.org/) -->

<svg
   xmlns:dc="http://purl.org/dc/elements/1.1/"
   xmlns:cc="http://creativecommons.org/ns#"
   xmlns:rdf="http://www.w3.org/1999/02/22-rdf-syntax-ns#"
   xmlns:svg="http://www.w3.org/2000/svg"
   xmlns="http://www.w3.org/2000/svg"
   xmlns:sodipodi="http://sodipodi.sourceforge.net/DTD/sodipodi-0.dtd"
   xmlns:inkscape="http://www.inkscape.org/namespaces/inkscape"
   version="1.1"
   id="svg3970"
   width="500mm"
   height="300mm"
   viewBox="0 0 1889.7638 1133.8582"
   sodipodi:docname="Seitenteil-innen.svg"
   inkscape:version="0.92.3 (2405546, 2018-03-11)">
  <metadata
     id="metadata3976">
    <rdf:RDF>
      <cc:Work
         rdf:about="">
        <dc:format>image/svg+xml</dc:format>
        <dc:type
           rdf:resource="http://purl.org/dc/dcmitype/StillImage" />
        <dc:title></dc:title>
      </cc:Work>
    </rdf:RDF>
  </metadata>
  <defs
     id="defs3974" />
  <sodipodi:namedview
     pagecolor="#ffffff"
     bordercolor="#666666"
     borderopacity="1"
     objecttolerance="10"
     gridtolerance="10"
     guidetolerance="10"
     inkscape:pageopacity="0"
     inkscape:pageshadow="2"
     inkscape:window-width="1366"
     inkscape:window-height="703"
     id="namedview3972"
     showgrid="false"
     inkscape:object-paths="true"
     inkscape:object-nodes="false"
     inkscape:snap-smooth-nodes="false"
     inkscape:zoom="0.44626389"
     inkscape:cx="529.20855"
     inkscape:cy="566.92913"
     inkscape:window-x="0"
     inkscape:window-y="0"
     inkscape:window-maximized="1"
     inkscape:current-layer="svg3970"
     units="mm"
     inkscape:document-units="mm"
     width="500mm" />
  <path
     id="path870"
     style="fill:none;stroke:#000000;stroke-width:0.75590549;stroke-linecap:butt;stroke-linejoin:miter;stroke-opacity:1;stroke-miterlimit:4;stroke-dasharray:none"
     d="m 132.63077,13.994105 -42.889001,1.21139 m 0,0 -76.243536,76.94014 80.070332,79.273865 51.913095,-52.24743 587.47269,3.56447 50.47419,49.91981 v 0 M 897.31088,58.238005 783.47295,172.61173 M 803.96624,17.962925 c 14.76714,-0.82774 28.71305,-1.36783 43.48886,1.00054 4.82395,2.2739 13.37068,2.48466 22.48026,12.61622 l 27.37553,26.65831 m -764.78272,-44.24449 671.82453,3.95711"
     inkscape:connector-curvature="0"
     sodipodi:nodetypes="ccccccccccccccccc" />
  <path
     id="path870-3"
     style="fill:none;stroke:#000000;stroke-width:0.75590549;stroke-linecap:butt;stroke-linejoin:miter;stroke-opacity:1;stroke-miterlimit:4;stroke-dasharray:none"
     d="m 145.73542,185.15896 -42.88901,1.21139 m 0,0 -76.243532,76.94014 80.070322,79.27386 51.91311,-52.24742 587.47267,3.56447 50.47419,49.9198 v 0 M 910.4155,229.40286 796.57758,343.77658 m 20.49328,-154.6488 c 14.76714,-0.82774 28.71305,-1.36783 43.48886,1.00054 4.82395,2.2739 13.37068,2.48466 22.48026,12.61622 l 27.37553,26.65831 m -764.78269,-44.24449 671.8245,3.95711"
     inkscape:connector-curvature="0"
     sodipodi:nodetypes="ccccccccccccccccc" />
</svg>
