<?xml version="1.0" encoding="UTF-8" standalone="no"?>
<!-- Created with Inkscape (http://www.inkscape.org/) -->

<svg
   xmlns:dc="http://purl.org/dc/elements/1.1/"
   xmlns:cc="http://creativecommons.org/ns#"
   xmlns:rdf="http://www.w3.org/1999/02/22-rdf-syntax-ns#"
   xmlns:svg="http://www.w3.org/2000/svg"
   xmlns="http://www.w3.org/2000/svg"
   xmlns:sodipodi="http://sodipodi.sourceforge.net/DTD/sodipodi-0.dtd"
   xmlns:inkscape="http://www.inkscape.org/namespaces/inkscape"
   version="1.1"
   id="svg3970"
   width="684.15997"
   height="811.52002"
   viewBox="0 0 684.15997 811.52002"
   sodipodi:docname="Seitenteil.svg"
   inkscape:version="0.92.3 (2405546, 2018-03-11)">
  <metadata
     id="metadata3976">
    <rdf:RDF>
      <cc:Work
         rdf:about="">
        <dc:format>image/svg+xml</dc:format>
        <dc:type
           rdf:resource="http://purl.org/dc/dcmitype/StillImage" />
        <dc:title />
      </cc:Work>
    </rdf:RDF>
  </metadata>
  <defs
     id="defs3974" />
  <sodipodi:namedview
     pagecolor="#ffffff"
     bordercolor="#666666"
     borderopacity="1"
     objecttolerance="10"
     gridtolerance="10"
     guidetolerance="10"
     inkscape:pageopacity="0"
     inkscape:pageshadow="2"
     inkscape:window-width="1366"
     inkscape:window-height="715"
     id="namedview3972"
     showgrid="false"
     inkscape:object-paths="true"
     inkscape:object-nodes="false"
     inkscape:snap-smooth-nodes="false"
     inkscape:zoom="0.42355394"
     inkscape:cx="52.447232"
     inkscape:cy="179.46939"
     inkscape:window-x="-8"
     inkscape:window-y="-8"
     inkscape:window-maximized="1"
     inkscape:current-layer="svg3970" />
  <path
     id="path4866"
     style="fill:none;stroke:#000000;stroke-width:1px;stroke-linecap:butt;stroke-linejoin:miter;stroke-opacity:1"
     d="m 641.08956,320.90855 -18.92818,-5.4e-4 m 29.66917,103.7191 0.24156,-96.09515 -0.0439,-4.38133 c 0,0 0.59519,-3.53584 -4.54152,-3.20069 -3.7645,-0.0961 -7.0069,-0.0324 -7.0069,-0.0324 m 15.30579,114.297 -1.77685,0.0112 c 0,0 -1.79628,0.32033 -2.03638,-1.3606 -0.23435,-1.64068 -0.13714,-9.6844 -0.13714,-9.6844 m 19.74799,10.96551 -16.22059,0.0794 m 26.63926,-290.51352 -0.46438,283.00189 c 0,0 0.15665,6.01316 -2.99315,7.05394 -2.22107,0.73391 -6.98019,0.36221 -6.98019,0.36221 M 622.99944,134.16579 H 678.634 c 0,0 3.21976,-0.48176 3.4444,4.81771 -0.0428,3.92941 -0.0916,6.62435 -0.0916,6.62435 M 411.75641,690.57513 c 0,10.31975 -8.3658,18.68556 -18.68555,18.68556 -10.31975,0 -18.68555,-8.36581 -18.68555,-18.68556 0,-10.31974 8.36581,-18.68555 18.68555,-18.68555 10.31974,0 18.68555,8.36581 18.68555,18.68555 z m 56.69294,0 c 0,10.31975 -8.36581,18.68556 -18.68556,18.68556 -10.31975,0 -18.68555,-8.36581 -18.68555,-18.68556 0,-10.31974 8.36581,-18.68555 18.68555,-18.68555 10.31975,0 18.68556,8.3658 18.68556,18.68555 z m 56.6929,0 c 0,10.31975 -8.3658,18.68556 -18.68555,18.68556 -10.31975,0 -18.68556,-8.36581 -18.68556,-18.68556 0,-10.31975 8.36581,-18.68555 18.68556,-18.68555 10.31974,0 18.68555,8.36581 18.68555,18.68555 z m 56.6929,0 c 0,10.31975 -8.3658,18.68556 -18.68555,18.68556 -10.31975,0 -18.68556,-8.36581 -18.68556,-18.68556 0,-10.31975 8.36581,-18.68555 18.68556,-18.68555 10.31974,0 18.68555,8.36581 18.68555,18.68555 z M 623.2081,133.6656 621.10982,794.6935 1.3588503,793.53388 l 2.1059,-82.51307 v 0 M 48.334742,639.99624 528.78503,170.38854 M 4.2994808,706.84693 c 0,0 -3.39084701,-13.01597 16.3011202,-38.34297 10.975559,-14.11633 28.181592,-28.89613 28.181592,-28.89613 M 528.51891,170.66914 c 9.91739,-10.97265 19.45315,-21.1633 31.62418,-29.86961 5.02882,-1.77541 11.25375,-7.63555 24.8551,-6.83778 l 38.20991,-0.29615"
     inkscape:connector-curvature="0"
     sodipodi:nodetypes="cccccccccscccccccccccsssssssssssssssssssscccccccccccscc" />
</svg>
